<svg width="449" height="263" viewBox="0 0 449 263" fill="none" xmlns="http://www.w3.org/2000/svg">
<path d="M282.048 262H279.952L276.288 250.832H278.16L279.936 256.352L281.008 260.24H281.072L282.16 256.352L283.936 250.832H285.76L282.048 262ZM293.82 262H292.844C291.932 262 291.452 261.424 291.34 260.608H291.26C290.94 261.648 290.044 262.192 288.828 262.192C287.116 262.192 286.14 261.216 286.14 259.712C286.14 258.064 287.372 257.216 289.692 257.216H291.196V256.512C291.196 255.504 290.652 254.912 289.484 254.912C288.508 254.912 287.916 255.392 287.5 256.048L286.46 255.104C287.004 254.176 287.98 253.488 289.596 253.488C291.74 253.488 292.94 254.544 292.94 256.4V260.576H293.82V262ZM289.324 260.864C290.396 260.864 291.196 260.352 291.196 259.536V258.336H289.724C288.508 258.336 287.916 258.736 287.916 259.456V259.744C287.916 260.48 288.46 260.864 289.324 260.864ZM298.425 262H297.305C296.121 262 295.529 261.344 295.529 260.272V250.16H297.273V260.576H298.425V262ZM305.132 262V260.624H305.068C304.764 261.44 304.108 262.192 302.732 262.192C301.02 262.192 300.012 261.024 300.012 258.976V253.68H301.756V258.752C301.756 260.016 302.284 260.688 303.356 260.688C304.252 260.688 305.132 260.224 305.132 259.248V253.68H306.876V262H305.132ZM312.637 262.192C310.269 262.192 308.813 260.496 308.813 257.84C308.813 255.184 310.269 253.488 312.637 253.488C315.085 253.488 316.333 255.328 316.333 257.632V258.288H310.621V258.56C310.621 259.84 311.405 260.752 312.813 260.752C313.837 260.752 314.525 260.272 315.005 259.504L316.029 260.512C315.405 261.52 314.189 262.192 312.637 262.192ZM312.637 254.848C311.437 254.848 310.621 255.744 310.621 257.024V257.136H314.493V256.976C314.493 255.696 313.789 254.848 312.637 254.848Z" fill="#252525"/>
<path d="M12 148.24L12 153.104L10.528 153.104L10.528 151.584L2.304 151.584L2.304 153.104L0.832 153.104L0.832 148.24L2.304 148.24L2.304 149.776L10.528 149.776L10.528 148.24L12 148.24ZM12 144.352L12 146.096L3.68 146.096L3.68 144.352L5.056 144.352L5.056 144.272C4.192 143.936 3.488 143.312 3.488 142.048C3.488 140.928 4.032 139.984 5.184 139.584L5.184 139.536C4.256 139.232 3.488 138.368 3.488 137.024C3.488 135.376 4.672 134.4 6.72 134.4L12 134.4L12 136.144L6.928 136.144C5.648 136.144 4.992 136.624 4.992 137.68C4.992 138.56 5.456 139.376 6.416 139.376L12 139.376L12 141.12L6.928 141.12C5.632 141.12 4.992 141.616 4.992 142.64C4.992 143.504 5.456 144.352 6.416 144.352L12 144.352ZM15.2 131.986L3.68 131.986L3.68 130.242L5.056 130.242L5.056 130.162C4.064 129.81 3.488 128.93 3.488 127.826C3.488 125.73 5.104 124.514 7.84 124.514C10.576 124.514 12.192 125.73 12.192 127.826C12.192 128.93 11.6 129.81 10.624 130.162L10.624 130.242L15.2 130.242L15.2 131.986ZM10.688 128.354C10.688 127.154 9.84 126.354 8.56 126.354L7.12 126.354C5.84 126.354 4.992 127.154 4.992 128.354C4.992 129.41 5.568 130.242 6.416 130.242L9.264 130.242C10.112 130.242 10.688 129.41 10.688 128.354ZM12 115.446L12 116.422C12 117.334 11.424 117.814 10.608 117.926L10.608 118.006C11.648 118.326 12.192 119.222 12.192 120.438C12.192 122.15 11.216 123.126 9.712 123.126C8.064 123.126 7.216 121.894 7.216 119.574L7.216 118.07L6.512 118.07C5.504 118.07 4.912 118.614 4.912 119.782C4.912 120.758 5.392 121.35 6.048 121.766L5.104 122.806C4.176 122.262 3.488 121.286 3.488 119.67C3.488 117.526 4.544 116.326 6.4 116.326L10.576 116.326L10.576 115.446L12 115.446ZM10.864 119.942C10.864 118.87 10.352 118.07 9.536 118.07L8.336 118.07L8.336 119.542C8.336 120.758 8.736 121.35 9.456 121.35L9.744 121.35C10.48 121.35 10.864 120.806 10.864 119.942ZM12.192 110.52C12.192 112.92 10.496 114.296 7.84 114.296C5.184 114.296 3.488 112.92 3.488 110.52C3.488 108.856 4.304 107.8 5.536 107.304L6.208 108.744C5.44 108.984 4.944 109.576 4.944 110.52C4.944 111.8 5.824 112.456 7.104 112.456L8.592 112.456C9.872 112.456 10.752 111.8 10.752 110.52C10.752 109.512 10.208 108.92 9.376 108.568L10.08 107.24C11.44 107.784 12.192 108.92 12.192 110.52ZM12 101.756L12 103.276C12 104.476 11.328 105.116 10.192 105.116L5.104 105.116L5.104 106.412L3.68 106.412L3.68 105.708C3.68 105.132 3.44 104.94 2.864 104.94L1.408 104.94L1.408 103.372L3.68 103.372L3.68 101.628L5.104 101.628L5.104 103.372L10.576 103.372L10.576 101.756L12 101.756ZM12 88.8831L12 89.8591C12 90.7711 11.424 91.2511 10.608 91.3631L10.608 91.4431C11.648 91.7631 12.192 92.6591 12.192 93.8751C12.192 95.5871 11.216 96.5631 9.712 96.5631C8.064 96.5631 7.216 95.3311 7.216 93.0111L7.216 91.5071L6.512 91.5071C5.504 91.5071 4.912 92.0511 4.912 93.2191C4.912 94.1951 5.392 94.7871 6.048 95.2031L5.104 96.2431C4.176 95.6991 3.488 94.7231 3.488 93.1071C3.488 90.9631 4.544 89.7631 6.4 89.7631L10.576 89.7631L10.576 88.8831L12 88.8831ZM10.864 93.3791C10.864 92.3071 10.352 91.5071 9.536 91.5071L8.336 91.5071L8.336 92.9791C8.336 94.1951 8.736 94.7871 9.456 94.7871L9.744 94.7871C10.48 94.7871 10.864 94.2431 10.864 93.3791ZM12 85.4299L12 87.1739L3.68 87.1739L3.68 85.4299L5.28 85.4299L5.28 85.3499C4.432 85.1099 3.68 84.3899 3.68 83.0619L3.68 82.5979L5.36 82.5979L5.36 83.2859C5.36 84.6619 5.824 85.4299 6.688 85.4299L12 85.4299ZM12.192 77.863C12.192 80.231 10.496 81.687 7.84 81.687C5.184 81.687 3.488 80.231 3.488 77.863C3.488 75.415 5.328 74.167 7.632 74.167L8.288 74.167L8.288 79.879L8.56 79.879C9.84 79.879 10.752 79.095 10.752 77.687C10.752 76.663 10.272 75.975 9.504 75.495L10.512 74.471C11.52 75.095 12.192 76.311 12.192 77.863ZM4.848 77.863C4.848 79.063 5.744 79.879 7.024 79.879L7.136 79.879L7.136 76.007L6.976 76.007C5.696 76.007 4.848 76.711 4.848 77.863ZM12 65.1644L12 66.1404C12 67.0524 11.424 67.5324 10.608 67.6444L10.608 67.7244C11.648 68.0444 12.192 68.9404 12.192 70.1564C12.192 71.8684 11.216 72.8444 9.712 72.8444C8.064 72.8444 7.216 71.6124 7.216 69.2924L7.216 67.7884L6.512 67.7884C5.504 67.7884 4.912 68.3324 4.912 69.5004C4.912 70.4764 5.392 71.0684 6.048 71.4844L5.104 72.5244C4.176 71.9804 3.488 71.0044 3.488 69.3884C3.488 67.2444 4.544 66.0444 6.4 66.0444L10.576 66.0444L10.576 65.1644L12 65.1644ZM10.864 69.6604C10.864 68.5884 10.352 67.7884 9.536 67.7884L8.336 67.7884L8.336 69.2604C8.336 70.4764 8.736 71.0684 9.456 71.0684L9.744 71.0684C10.48 71.0684 10.864 70.5244 10.864 69.6604Z" fill="#252525"/>
<path d="M144 1V205H441" stroke="#252525" stroke-linecap="round"/>
<line x1="177.25" y1="1" x2="177.25" y2="213" stroke="#252525" stroke-opacity="0.2" stroke-width="0.5" stroke-dasharray="6 6"/>
<line x1="210.25" y1="1" x2="210.25" y2="207" stroke="#252525" stroke-opacity="0.2" stroke-width="0.5" stroke-dasharray="6 6"/>
<line x1="243.25" y1="1" x2="243.25" y2="213" stroke="#252525" stroke-opacity="0.2" stroke-width="0.5" stroke-dasharray="6 6"/>
<line x1="276.25" y1="1" x2="276.25" y2="207" stroke="#252525" stroke-opacity="0.2" stroke-width="0.5" stroke-dasharray="6 6"/>
<line x1="309.25" y1="1" x2="309.25" y2="213" stroke="#252525" stroke-opacity="0.2" stroke-width="0.5" stroke-dasharray="6 6"/>
<line x1="342.25" y1="1" x2="342.25" y2="207" stroke="#252525" stroke-opacity="0.2" stroke-width="0.5" stroke-dasharray="6 6"/>
<line x1="375.25" y1="1" x2="375.25" y2="213" stroke="#252525" stroke-opacity="0.2" stroke-width="0.5" stroke-dasharray="6 6"/>
<line x1="408.25" y1="1" x2="408.25" y2="207" stroke="#252525" stroke-opacity="0.2" stroke-width="0.5" stroke-dasharray="6 6"/>
<line x1="441.25" y1="1" x2="441.25" y2="213" stroke="#252525" stroke-opacity="0.2" stroke-width="0.5" stroke-dasharray="6 6"/>
<path d="M64.95 42.654V46.047H68.395V46.801H64.95V50.246H68.785V51H64.04V41.9H68.785V42.654H64.95ZM70.1621 47.451C70.1621 46.7143 70.3094 46.073 70.6041 45.527C70.8988 44.9723 71.3061 44.5477 71.8261 44.253C72.3461 43.9497 72.9398 43.798 73.6071 43.798C74.4824 43.798 75.2018 44.0147 75.7651 44.448C76.3371 44.8813 76.7054 45.4707 76.8701 46.216H75.8951C75.7738 45.7047 75.5094 45.306 75.1021 45.02C74.7034 44.7253 74.2051 44.578 73.6071 44.578C73.1304 44.578 72.7014 44.6863 72.3201 44.903C71.9388 45.1197 71.6354 45.4447 71.4101 45.878C71.1934 46.3027 71.0851 46.827 71.0851 47.451C71.0851 48.075 71.1934 48.6037 71.4101 49.037C71.6354 49.4703 71.9388 49.7953 72.3201 50.012C72.7014 50.2287 73.1304 50.337 73.6071 50.337C74.2051 50.337 74.7034 50.194 75.1021 49.908C75.5094 49.6133 75.7738 49.206 75.8951 48.686H76.8701C76.7054 49.414 76.3371 49.999 75.7651 50.441C75.1931 50.883 74.4738 51.104 73.6071 51.104C72.9398 51.104 72.3461 50.9567 71.8261 50.662C71.3061 50.3587 70.8988 49.934 70.6041 49.388C70.3094 48.8333 70.1621 48.1877 70.1621 47.451ZM81.6577 51.104C80.9904 51.104 80.3881 50.9567 79.8507 50.662C79.3221 50.3587 78.9017 49.934 78.5897 49.388C78.2864 48.8333 78.1347 48.1877 78.1347 47.451C78.1347 46.7143 78.2907 46.073 78.6027 45.527C78.9147 44.9723 79.3394 44.5477 79.8767 44.253C80.4141 43.9497 81.0164 43.798 81.6837 43.798C82.3511 43.798 82.9534 43.9497 83.4907 44.253C84.0367 44.5477 84.4614 44.9723 84.7647 45.527C85.0767 46.073 85.2327 46.7143 85.2327 47.451C85.2327 48.179 85.0767 48.8203 84.7647 49.375C84.4527 49.9297 84.0237 50.3587 83.4777 50.662C82.9317 50.9567 82.3251 51.104 81.6577 51.104ZM81.6577 50.311C82.1257 50.311 82.5591 50.207 82.9577 49.999C83.3564 49.7823 83.6771 49.4617 83.9197 49.037C84.1711 48.6037 84.2967 48.075 84.2967 47.451C84.2967 46.827 84.1754 46.3027 83.9327 45.878C83.6901 45.4447 83.3694 45.124 82.9707 44.916C82.5721 44.6993 82.1387 44.591 81.6707 44.591C81.2027 44.591 80.7694 44.6993 80.3707 44.916C79.9721 45.124 79.6514 45.4447 79.4087 45.878C79.1747 46.3027 79.0577 46.827 79.0577 47.451C79.0577 48.075 79.1747 48.6037 79.4087 49.037C79.6514 49.4617 79.9677 49.7823 80.3577 49.999C80.7564 50.207 81.1897 50.311 81.6577 50.311ZM90.2196 43.772C91.0689 43.772 91.7622 44.0363 92.2996 44.565C92.8369 45.085 93.1056 45.8433 93.1056 46.84V51H92.2086V46.944C92.2086 46.1727 92.0136 45.5833 91.6236 45.176C91.2422 44.7687 90.7179 44.565 90.0506 44.565C89.3659 44.565 88.8199 44.7817 88.4126 45.215C88.0052 45.6483 87.8016 46.2853 87.8016 47.126V51H86.8916V43.902H87.8016V45.111C88.0269 44.6777 88.3519 44.3483 88.7766 44.123C89.2012 43.889 89.6822 43.772 90.2196 43.772ZM98.2251 51.104C97.5578 51.104 96.9555 50.9567 96.4181 50.662C95.8895 50.3587 95.4691 49.934 95.1571 49.388C94.8538 48.8333 94.7021 48.1877 94.7021 47.451C94.7021 46.7143 94.8581 46.073 95.1701 45.527C95.4821 44.9723 95.9068 44.5477 96.4441 44.253C96.9815 43.9497 97.5838 43.798 98.2511 43.798C98.9185 43.798 99.5208 43.9497 100.058 44.253C100.604 44.5477 101.029 44.9723 101.332 45.527C101.644 46.073 101.8 46.7143 101.8 47.451C101.8 48.179 101.644 48.8203 101.332 49.375C101.02 49.9297 100.591 50.3587 100.045 50.662C99.4991 50.9567 98.8925 51.104 98.2251 51.104ZM98.2251 50.311C98.6931 50.311 99.1265 50.207 99.5251 49.999C99.9238 49.7823 100.244 49.4617 100.487 49.037C100.738 48.6037 100.864 48.075 100.864 47.451C100.864 46.827 100.743 46.3027 100.5 45.878C100.257 45.4447 99.9368 45.124 99.5381 44.916C99.1395 44.6993 98.7061 44.591 98.2381 44.591C97.7701 44.591 97.3368 44.6993 96.9381 44.916C96.5395 45.124 96.2188 45.4447 95.9761 45.878C95.7421 46.3027 95.6251 46.827 95.6251 47.451C95.6251 48.075 95.7421 48.6037 95.9761 49.037C96.2188 49.4617 96.5351 49.7823 96.9251 49.999C97.3238 50.207 97.7571 50.311 98.2251 50.311ZM111.909 43.772C112.741 43.772 113.417 44.0363 113.937 44.565C114.466 45.085 114.73 45.8433 114.73 46.84V51H113.833V46.944C113.833 46.1727 113.647 45.5833 113.274 45.176C112.901 44.7687 112.394 44.565 111.753 44.565C111.086 44.565 110.553 44.786 110.154 45.228C109.755 45.67 109.556 46.3113 109.556 47.152V51H108.659V46.944C108.659 46.1727 108.473 45.5833 108.1 45.176C107.727 44.7687 107.216 44.565 106.566 44.565C105.899 44.565 105.366 44.786 104.967 45.228C104.568 45.67 104.369 46.3113 104.369 47.152V51H103.459V43.902H104.369V45.124C104.594 44.682 104.915 44.3483 105.331 44.123C105.747 43.889 106.211 43.772 106.722 43.772C107.337 43.772 107.875 43.9193 108.334 44.214C108.802 44.5087 109.14 44.942 109.348 45.514C109.539 44.9507 109.864 44.5217 110.323 44.227C110.791 43.9237 111.32 43.772 111.909 43.772ZM117.206 42.563C117.024 42.563 116.868 42.498 116.738 42.368C116.608 42.238 116.543 42.0777 116.543 41.887C116.543 41.6963 116.608 41.5403 116.738 41.419C116.868 41.289 117.024 41.224 117.206 41.224C117.388 41.224 117.544 41.289 117.674 41.419C117.804 41.5403 117.869 41.6963 117.869 41.887C117.869 42.0777 117.804 42.238 117.674 42.368C117.544 42.498 117.388 42.563 117.206 42.563ZM117.661 43.902V51H116.751V43.902H117.661ZM119.306 47.451C119.306 46.7143 119.453 46.073 119.748 45.527C120.042 44.9723 120.45 44.5477 120.97 44.253C121.49 43.9497 122.083 43.798 122.751 43.798C123.626 43.798 124.345 44.0147 124.909 44.448C125.481 44.8813 125.849 45.4707 126.014 46.216H125.039C124.917 45.7047 124.653 45.306 124.246 45.02C123.847 44.7253 123.349 44.578 122.751 44.578C122.274 44.578 121.845 44.6863 121.464 44.903C121.082 45.1197 120.779 45.4447 120.554 45.878C120.337 46.3027 120.229 46.827 120.229 47.451C120.229 48.075 120.337 48.6037 120.554 49.037C120.779 49.4703 121.082 49.7953 121.464 50.012C121.845 50.2287 122.274 50.337 122.751 50.337C123.349 50.337 123.847 50.194 124.246 49.908C124.653 49.6133 124.917 49.206 125.039 48.686H126.014C125.849 49.414 125.481 49.999 124.909 50.441C124.337 50.883 123.617 51.104 122.751 51.104C122.083 51.104 121.49 50.9567 120.97 50.662C120.45 50.3587 120.042 49.934 119.748 49.388C119.453 48.8333 119.306 48.1877 119.306 47.451Z" fill="black"/>
<path d="M91.796 107.091C91.198 107.091 90.6693 106.987 90.21 106.779C89.7593 106.571 89.404 106.281 89.144 105.908C88.884 105.535 88.7453 105.119 88.728 104.66H89.69C89.7333 105.102 89.9283 105.492 90.275 105.83C90.6217 106.159 91.1287 106.324 91.796 106.324C92.4113 106.324 92.8967 106.168 93.252 105.856C93.616 105.535 93.798 105.132 93.798 104.647C93.798 104.257 93.6983 103.945 93.499 103.711C93.2997 103.468 93.0527 103.291 92.758 103.178C92.4633 103.057 92.056 102.927 91.536 102.788C90.9293 102.623 90.4483 102.463 90.093 102.307C89.7377 102.151 89.4343 101.908 89.183 101.579C88.9317 101.25 88.806 100.803 88.806 100.24C88.806 99.772 88.9273 99.356 89.17 98.992C89.4127 98.6193 89.755 98.329 90.197 98.121C90.639 97.913 91.146 97.809 91.718 97.809C92.5587 97.809 93.2347 98.017 93.746 98.433C94.266 98.8403 94.565 99.369 94.643 100.019H93.655C93.5943 99.6463 93.3907 99.317 93.044 99.031C92.6973 98.7363 92.2293 98.589 91.64 98.589C91.094 98.589 90.639 98.7363 90.275 99.031C89.911 99.317 89.729 99.7113 89.729 100.214C89.729 100.595 89.8287 100.903 90.028 101.137C90.2273 101.371 90.4743 101.549 90.769 101.67C91.0723 101.791 91.4797 101.921 91.991 102.06C92.5803 102.225 93.057 102.389 93.421 102.554C93.785 102.71 94.0927 102.953 94.344 103.282C94.5953 103.611 94.721 104.053 94.721 104.608C94.721 105.033 94.6083 105.436 94.383 105.817C94.1577 106.198 93.824 106.506 93.382 106.74C92.94 106.974 92.4113 107.091 91.796 107.091ZM99.5865 107.104C98.9191 107.104 98.3168 106.957 97.7795 106.662C97.2508 106.359 96.8305 105.934 96.5185 105.388C96.2151 104.833 96.0635 104.188 96.0635 103.451C96.0635 102.714 96.2195 102.073 96.5315 101.527C96.8435 100.972 97.2681 100.548 97.8055 100.253C98.3428 99.9497 98.9451 99.798 99.6125 99.798C100.28 99.798 100.882 99.9497 101.419 100.253C101.965 100.548 102.39 100.972 102.693 101.527C103.005 102.073 103.161 102.714 103.161 103.451C103.161 104.179 103.005 104.82 102.693 105.375C102.381 105.93 101.952 106.359 101.406 106.662C100.86 106.957 100.254 107.104 99.5865 107.104ZM99.5865 106.311C100.054 106.311 100.488 106.207 100.886 105.999C101.285 105.782 101.606 105.462 101.848 105.037C102.1 104.604 102.225 104.075 102.225 103.451C102.225 102.827 102.104 102.303 101.861 101.878C101.619 101.445 101.298 101.124 100.899 100.916C100.501 100.699 100.067 100.591 99.5995 100.591C99.1315 100.591 98.6981 100.699 98.2995 100.916C97.9008 101.124 97.5801 101.445 97.3375 101.878C97.1035 102.303 96.9865 102.827 96.9865 103.451C96.9865 104.075 97.1035 104.604 97.3375 105.037C97.5801 105.462 97.8965 105.782 98.2865 105.999C98.6851 106.207 99.1185 106.311 99.5865 106.311ZM104.404 103.451C104.404 102.714 104.552 102.073 104.846 101.527C105.141 100.972 105.548 100.548 106.068 100.253C106.588 99.9497 107.182 99.798 107.849 99.798C108.725 99.798 109.444 100.015 110.007 100.448C110.579 100.881 110.948 101.471 111.112 102.216H110.137C110.016 101.705 109.752 101.306 109.344 101.02C108.946 100.725 108.447 100.578 107.849 100.578C107.373 100.578 106.944 100.686 106.562 100.903C106.181 101.12 105.878 101.445 105.652 101.878C105.436 102.303 105.327 102.827 105.327 103.451C105.327 104.075 105.436 104.604 105.652 105.037C105.878 105.47 106.181 105.795 106.562 106.012C106.944 106.229 107.373 106.337 107.849 106.337C108.447 106.337 108.946 106.194 109.344 105.908C109.752 105.613 110.016 105.206 110.137 104.686H111.112C110.948 105.414 110.579 105.999 110.007 106.441C109.435 106.883 108.716 107.104 107.849 107.104C107.182 107.104 106.588 106.957 106.068 106.662C105.548 106.359 105.141 105.934 104.846 105.388C104.552 104.833 104.404 104.188 104.404 103.451ZM113.248 98.563C113.066 98.563 112.91 98.498 112.78 98.368C112.65 98.238 112.585 98.0777 112.585 97.887C112.585 97.6963 112.65 97.5403 112.78 97.419C112.91 97.289 113.066 97.224 113.248 97.224C113.43 97.224 113.586 97.289 113.716 97.419C113.846 97.5403 113.911 97.6963 113.911 97.887C113.911 98.0777 113.846 98.238 113.716 98.368C113.586 98.498 113.43 98.563 113.248 98.563ZM113.703 99.902V107H112.793V99.902H113.703ZM115.348 103.438C115.348 102.71 115.491 102.073 115.777 101.527C116.071 100.972 116.474 100.548 116.986 100.253C117.506 99.9497 118.091 99.798 118.741 99.798C119.417 99.798 119.997 99.954 120.483 100.266C120.977 100.578 121.332 100.977 121.549 101.462V99.902H122.459V107H121.549V105.427C121.323 105.912 120.964 106.315 120.47 106.636C119.984 106.948 119.404 107.104 118.728 107.104C118.086 107.104 117.506 106.952 116.986 106.649C116.474 106.346 116.071 105.917 115.777 105.362C115.491 104.807 115.348 104.166 115.348 103.438ZM121.549 103.451C121.549 102.879 121.432 102.376 121.198 101.943C120.964 101.51 120.643 101.176 120.236 100.942C119.837 100.708 119.395 100.591 118.91 100.591C118.407 100.591 117.956 100.704 117.558 100.929C117.159 101.154 116.843 101.484 116.609 101.917C116.383 102.342 116.271 102.849 116.271 103.438C116.271 104.019 116.383 104.53 116.609 104.972C116.843 105.405 117.159 105.739 117.558 105.973C117.956 106.198 118.407 106.311 118.91 106.311C119.395 106.311 119.837 106.194 120.236 105.96C120.643 105.726 120.964 105.392 121.198 104.959C121.432 104.526 121.549 104.023 121.549 103.451ZM125.446 97.38V107H124.536V97.38H125.446Z" fill="black"/>
<path d="M35.95 154.654V158.047H39.395V158.801H35.95V162.246H39.785V163H35.04V153.9H39.785V154.654H35.95ZM44.9061 155.772C45.7554 155.772 46.4488 156.036 46.9861 156.565C47.5234 157.085 47.7921 157.843 47.7921 158.84V163H46.8951V158.944C46.8951 158.173 46.7001 157.583 46.3101 157.176C45.9288 156.769 45.4044 156.565 44.7371 156.565C44.0524 156.565 43.5064 156.782 43.0991 157.215C42.6918 157.648 42.4881 158.285 42.4881 159.126V163H41.5781V155.902H42.4881V157.111C42.7134 156.678 43.0384 156.348 43.4631 156.123C43.8878 155.889 44.3688 155.772 44.9061 155.772ZM52.3266 162.116L54.7186 155.902H55.6806L52.8336 163H51.8066L48.9596 155.902H49.9346L52.3266 162.116ZM57.369 154.563C57.187 154.563 57.031 154.498 56.901 154.368C56.771 154.238 56.706 154.078 56.706 153.887C56.706 153.696 56.771 153.54 56.901 153.419C57.031 153.289 57.187 153.224 57.369 153.224C57.551 153.224 57.707 153.289 57.837 153.419C57.967 153.54 58.032 153.696 58.032 153.887C58.032 154.078 57.967 154.238 57.837 154.368C57.707 154.498 57.551 154.563 57.369 154.563ZM57.824 155.902V163H56.914V155.902H57.824ZM60.7947 157.163C60.9941 156.721 61.2974 156.379 61.7047 156.136C62.1207 155.893 62.6277 155.772 63.2257 155.772V156.721H62.9787C62.3201 156.721 61.7914 156.899 61.3927 157.254C60.9941 157.609 60.7947 158.203 60.7947 159.035V163H59.8847V155.902H60.7947V157.163ZM67.7017 163.104C67.0344 163.104 66.432 162.957 65.8947 162.662C65.366 162.359 64.9457 161.934 64.6337 161.388C64.3304 160.833 64.1787 160.188 64.1787 159.451C64.1787 158.714 64.3347 158.073 64.6467 157.527C64.9587 156.972 65.3834 156.548 65.9207 156.253C66.458 155.95 67.0604 155.798 67.7277 155.798C68.395 155.798 68.9974 155.95 69.5347 156.253C70.0807 156.548 70.5054 156.972 70.8087 157.527C71.1207 158.073 71.2767 158.714 71.2767 159.451C71.2767 160.179 71.1207 160.82 70.8087 161.375C70.4967 161.93 70.0677 162.359 69.5217 162.662C68.9757 162.957 68.369 163.104 67.7017 163.104ZM67.7017 162.311C68.1697 162.311 68.603 162.207 69.0017 161.999C69.4004 161.782 69.721 161.462 69.9637 161.037C70.215 160.604 70.3407 160.075 70.3407 159.451C70.3407 158.827 70.2194 158.303 69.9767 157.878C69.734 157.445 69.4134 157.124 69.0147 156.916C68.616 156.699 68.1827 156.591 67.7147 156.591C67.2467 156.591 66.8134 156.699 66.4147 156.916C66.016 157.124 65.6954 157.445 65.4527 157.878C65.2187 158.303 65.1017 158.827 65.1017 159.451C65.1017 160.075 65.2187 160.604 65.4527 161.037C65.6954 161.462 66.0117 161.782 66.4017 161.999C66.8004 162.207 67.2337 162.311 67.7017 162.311ZM76.2635 155.772C77.1128 155.772 77.8062 156.036 78.3435 156.565C78.8808 157.085 79.1495 157.843 79.1495 158.84V163H78.2525V158.944C78.2525 158.173 78.0575 157.583 77.6675 157.176C77.2862 156.769 76.7618 156.565 76.0945 156.565C75.4098 156.565 74.8638 156.782 74.4565 157.215C74.0492 157.648 73.8455 158.285 73.8455 159.126V163H72.9355V155.902H73.8455V157.111C74.0708 156.678 74.3958 156.348 74.8205 156.123C75.2452 155.889 75.7262 155.772 76.2635 155.772ZM89.6121 155.772C90.4441 155.772 91.1201 156.036 91.6401 156.565C92.1687 157.085 92.4331 157.843 92.4331 158.84V163H91.5361V158.944C91.5361 158.173 91.3497 157.583 90.9771 157.176C90.6044 156.769 90.0974 156.565 89.4561 156.565C88.7887 156.565 88.2557 156.786 87.8571 157.228C87.4584 157.67 87.2591 158.311 87.2591 159.152V163H86.3621V158.944C86.3621 158.173 86.1757 157.583 85.8031 157.176C85.4304 156.769 84.9191 156.565 84.2691 156.565C83.6017 156.565 83.0687 156.786 82.6701 157.228C82.2714 157.67 82.0721 158.311 82.0721 159.152V163H81.1621V155.902H82.0721V157.124C82.2974 156.682 82.6181 156.348 83.0341 156.123C83.4501 155.889 83.9137 155.772 84.4251 155.772C85.0404 155.772 85.5777 155.919 86.0371 156.214C86.5051 156.509 86.8431 156.942 87.0511 157.514C87.2417 156.951 87.5667 156.522 88.0261 156.227C88.4941 155.924 89.0227 155.772 89.6121 155.772ZM100.876 159.087C100.876 159.399 100.867 159.637 100.85 159.802H94.9611C94.9871 160.339 95.1171 160.799 95.3511 161.18C95.5851 161.561 95.8927 161.852 96.2741 162.051C96.6554 162.242 97.0714 162.337 97.5221 162.337C98.1114 162.337 98.6054 162.194 99.0041 161.908C99.4114 161.622 99.6801 161.236 99.8101 160.751H100.772C100.599 161.444 100.226 162.012 99.6541 162.454C99.0907 162.887 98.3801 163.104 97.5221 163.104C96.8547 163.104 96.2567 162.957 95.7281 162.662C95.1994 162.359 94.7834 161.934 94.4801 161.388C94.1854 160.833 94.0381 160.188 94.0381 159.451C94.0381 158.714 94.1854 158.069 94.4801 157.514C94.7747 156.959 95.1864 156.535 95.7151 156.24C96.2437 155.945 96.8461 155.798 97.5221 155.798C98.1981 155.798 98.7874 155.945 99.2901 156.24C99.8014 156.535 100.191 156.933 100.46 157.436C100.737 157.93 100.876 158.48 100.876 159.087ZM99.9531 159.061C99.9617 158.532 99.8534 158.082 99.6281 157.709C99.4114 157.336 99.1124 157.055 98.7311 156.864C98.3497 156.673 97.9337 156.578 97.4831 156.578C96.8071 156.578 96.2307 156.795 95.7541 157.228C95.2774 157.661 95.0131 158.272 94.9611 159.061H99.9531ZM105.869 155.772C106.718 155.772 107.412 156.036 107.949 156.565C108.486 157.085 108.755 157.843 108.755 158.84V163H107.858V158.944C107.858 158.173 107.663 157.583 107.273 157.176C106.892 156.769 106.367 156.565 105.7 156.565C105.015 156.565 104.469 156.782 104.062 157.215C103.655 157.648 103.451 158.285 103.451 159.126V163H102.541V155.902H103.451V157.111C103.676 156.678 104.001 156.348 104.426 156.123C104.851 155.889 105.332 155.772 105.869 155.772ZM111.951 156.669V161.076C111.951 161.509 112.033 161.808 112.198 161.973C112.362 162.138 112.653 162.22 113.069 162.22H113.901V163H112.926C112.284 163 111.808 162.853 111.496 162.558C111.184 162.255 111.028 161.761 111.028 161.076V156.669H110.04V155.902H111.028V154.121H111.951V155.902H113.901V156.669H111.951ZM114.985 159.438C114.985 158.71 115.128 158.073 115.414 157.527C115.709 156.972 116.112 156.548 116.623 156.253C117.143 155.95 117.728 155.798 118.378 155.798C119.054 155.798 119.635 155.954 120.12 156.266C120.614 156.578 120.97 156.977 121.186 157.462V155.902H122.096V163H121.186V161.427C120.961 161.912 120.601 162.315 120.107 162.636C119.622 162.948 119.041 163.104 118.365 163.104C117.724 163.104 117.143 162.952 116.623 162.649C116.112 162.346 115.709 161.917 115.414 161.362C115.128 160.807 114.985 160.166 114.985 159.438ZM121.186 159.451C121.186 158.879 121.069 158.376 120.835 157.943C120.601 157.51 120.281 157.176 119.873 156.942C119.475 156.708 119.033 156.591 118.547 156.591C118.045 156.591 117.594 156.704 117.195 156.929C116.797 157.154 116.48 157.484 116.246 157.917C116.021 158.342 115.908 158.849 115.908 159.438C115.908 160.019 116.021 160.53 116.246 160.972C116.48 161.405 116.797 161.739 117.195 161.973C117.594 162.198 118.045 162.311 118.547 162.311C119.033 162.311 119.475 162.194 119.873 161.96C120.281 161.726 120.601 161.392 120.835 160.959C121.069 160.526 121.186 160.023 121.186 159.451ZM125.084 153.38V163H124.174V153.38H125.084Z" fill="black"/>
<path d="M433.442 227.79V227.101L438.174 220.731H439.253V226.997H440.644V227.79H439.253V230H438.356V227.79H433.442ZM438.395 221.732L434.495 226.997H438.395V221.732ZM447.694 221.459H442.936V224.787C443.152 224.484 443.469 224.237 443.885 224.046C444.301 223.847 444.751 223.747 445.237 223.747C445.947 223.747 446.528 223.894 446.979 224.189C447.429 224.475 447.754 224.852 447.954 225.32C448.153 225.779 448.253 226.273 448.253 226.802C448.253 227.409 448.136 227.959 447.902 228.453C447.676 228.938 447.325 229.324 446.849 229.61C446.381 229.896 445.796 230.039 445.094 230.039C444.201 230.039 443.477 229.809 442.923 229.35C442.368 228.882 442.03 228.254 441.909 227.465H442.806C442.918 228.037 443.178 228.479 443.586 228.791C443.993 229.103 444.496 229.259 445.094 229.259C445.848 229.259 446.415 229.038 446.797 228.596C447.187 228.145 447.382 227.552 447.382 226.815C447.382 226.096 447.187 225.537 446.797 225.138C446.407 224.731 445.848 224.527 445.12 224.527C444.617 224.527 444.175 224.644 443.794 224.878C443.412 225.112 443.131 225.428 442.949 225.827H442.091V220.666H447.694V221.459Z" fill="#252525"/>
<path d="M367.806 223.058C367.867 222.269 368.17 221.65 368.716 221.199C369.271 220.74 369.986 220.51 370.861 220.51C371.442 220.51 371.94 220.614 372.356 220.822C372.772 221.03 373.084 221.316 373.292 221.68C373.509 222.035 373.617 222.438 373.617 222.889C373.617 223.435 373.457 223.907 373.136 224.306C372.815 224.705 372.36 224.952 371.771 225.047V225.112C372.386 225.233 372.876 225.502 373.24 225.918C373.604 226.325 373.786 226.863 373.786 227.53C373.786 228.275 373.535 228.886 373.032 229.363C372.538 229.831 371.819 230.065 370.874 230.065C369.973 230.065 369.232 229.831 368.651 229.363C368.07 228.886 367.737 228.215 367.65 227.348H368.534C368.612 227.929 368.855 228.401 369.262 228.765C369.669 229.12 370.207 229.298 370.874 229.298C371.533 229.298 372.035 229.125 372.382 228.778C372.737 228.431 372.915 227.989 372.915 227.452C372.915 226.135 371.966 225.476 370.068 225.476H369.782V224.709H370.081C371.849 224.709 372.733 224.133 372.733 222.98C372.733 222.477 372.568 222.074 372.239 221.771C371.91 221.459 371.442 221.303 370.835 221.303C370.246 221.303 369.756 221.459 369.366 221.771C368.985 222.074 368.759 222.503 368.69 223.058H367.806ZM375.449 225.255C375.449 223.764 375.679 222.607 376.138 221.784C376.598 220.961 377.421 220.549 378.608 220.549C379.796 220.549 380.619 220.961 381.078 221.784C381.538 222.607 381.767 223.764 381.767 225.255C381.767 226.772 381.538 227.946 381.078 228.778C380.619 229.61 379.796 230.026 378.608 230.026C377.412 230.026 376.585 229.61 376.125 228.778C375.675 227.946 375.449 226.772 375.449 225.255ZM380.87 225.255C380.87 224.449 380.814 223.769 380.701 223.214C380.589 222.659 380.368 222.213 380.038 221.875C379.709 221.537 379.232 221.368 378.608 221.368C377.984 221.368 377.508 221.537 377.178 221.875C376.849 222.213 376.628 222.659 376.515 223.214C376.403 223.769 376.346 224.449 376.346 225.255C376.346 226.087 376.403 226.785 376.515 227.348C376.628 227.903 376.849 228.349 377.178 228.687C377.508 229.025 377.984 229.194 378.608 229.194C379.232 229.194 379.709 229.025 380.038 228.687C380.368 228.349 380.589 227.903 380.701 227.348C380.814 226.785 380.87 226.087 380.87 225.255Z" fill="#252525"/>
<path d="M301.663 229.285C303.258 228.089 304.488 227.019 305.355 226.074C306.23 225.121 306.668 224.189 306.668 223.279C306.668 222.681 306.516 222.204 306.213 221.849C305.918 221.485 305.433 221.303 304.757 221.303C304.098 221.303 303.587 221.511 303.223 221.927C302.868 222.334 302.668 222.88 302.625 223.565H301.741C301.793 222.603 302.088 221.858 302.625 221.329C303.171 220.792 303.882 220.523 304.757 220.523C305.598 220.523 306.278 220.761 306.798 221.238C307.318 221.706 307.578 222.373 307.578 223.24C307.578 224.289 307.14 225.307 306.265 226.295C305.398 227.274 304.328 228.232 303.054 229.168H307.864V229.935H301.663V229.285ZM315.16 221.459H310.402V224.787C310.619 224.484 310.935 224.237 311.351 224.046C311.767 223.847 312.218 223.747 312.703 223.747C313.414 223.747 313.995 223.894 314.445 224.189C314.896 224.475 315.221 224.852 315.42 225.32C315.62 225.779 315.719 226.273 315.719 226.802C315.719 227.409 315.602 227.959 315.368 228.453C315.143 228.938 314.792 229.324 314.315 229.61C313.847 229.896 313.262 230.039 312.56 230.039C311.668 230.039 310.944 229.809 310.389 229.35C309.835 228.882 309.497 228.254 309.375 227.465H310.272C310.385 228.037 310.645 228.479 311.052 228.791C311.46 229.103 311.962 229.259 312.56 229.259C313.314 229.259 313.882 229.038 314.263 228.596C314.653 228.145 314.848 227.552 314.848 226.815C314.848 226.096 314.653 225.537 314.263 225.138C313.873 224.731 313.314 224.527 312.586 224.527C312.084 224.527 311.642 224.644 311.26 224.878C310.879 225.112 310.597 225.428 310.415 225.827H309.557V220.666H315.16V221.459Z" fill="#252525"/>
<path d="M237.403 221.498V220.679H239.613V230H238.69V221.498H237.403ZM247.517 221.459H242.759V224.787C242.976 224.484 243.292 224.237 243.708 224.046C244.124 223.847 244.575 223.747 245.06 223.747C245.771 223.747 246.351 223.894 246.802 224.189C247.253 224.475 247.578 224.852 247.777 225.32C247.976 225.779 248.076 226.273 248.076 226.802C248.076 227.409 247.959 227.959 247.725 228.453C247.5 228.938 247.149 229.324 246.672 229.61C246.204 229.896 245.619 230.039 244.917 230.039C244.024 230.039 243.301 229.809 242.746 229.35C242.191 228.882 241.853 228.254 241.732 227.465H242.629C242.742 228.037 243.002 228.479 243.409 228.791C243.816 229.103 244.319 229.259 244.917 229.259C245.671 229.259 246.239 229.038 246.62 228.596C247.01 228.145 247.205 227.552 247.205 226.815C247.205 226.096 247.01 225.537 246.62 225.138C246.23 224.731 245.671 224.527 244.943 224.527C244.44 224.527 243.998 224.644 243.617 224.878C243.236 225.112 242.954 225.428 242.772 225.827H241.914V220.666H247.517V221.459Z" fill="#252525"/>
<path d="M178.721 221.459H173.963V224.787C174.18 224.484 174.496 224.237 174.912 224.046C175.328 223.847 175.779 223.747 176.264 223.747C176.975 223.747 177.555 223.894 178.006 224.189C178.457 224.475 178.782 224.852 178.981 225.32C179.18 225.779 179.28 226.273 179.28 226.802C179.28 227.409 179.163 227.959 178.929 228.453C178.704 228.938 178.353 229.324 177.876 229.61C177.408 229.896 176.823 230.039 176.121 230.039C175.228 230.039 174.505 229.809 173.95 229.35C173.395 228.882 173.057 228.254 172.936 227.465H173.833C173.946 228.037 174.206 228.479 174.613 228.791C175.02 229.103 175.523 229.259 176.121 229.259C176.875 229.259 177.443 229.038 177.824 228.596C178.214 228.145 178.409 227.552 178.409 226.815C178.409 226.096 178.214 225.537 177.824 225.138C177.434 224.731 176.875 224.527 176.147 224.527C175.644 224.527 175.202 224.644 174.821 224.878C174.44 225.112 174.158 225.428 173.976 225.827H173.118V220.666H178.721V221.459Z" fill="#252525"/>
<path d="M146 61L146 31L289 31L289 61L146 61Z" fill="#F04E98"/>
<path d="M146 117L146 87L221 87L221 117L146 117Z" fill="#F04E98"/>
</svg>
