<svg width="180" height="18" viewBox="0 0 180 18" fill="none" xmlns="http://www.w3.org/2000/svg">
<g clip-path="url(#clip0_83_33)">
<path d="M96.9768 15.9128H96.9587C96.8839 15.9128 96.8114 15.931 96.7184 15.931C96.3103 15.931 95.9952 15.7078 95.9952 14.8149C95.9952 14.0883 95.9952 13.2318 95.9952 12.282C95.9952 9.76497 96.0111 6.63525 96.0292 5.04988C96.0224 4.2572 95.7005 3.36658 94.5489 3.36658C94.3834 3.36658 94.1227 3.3848 93.9368 3.3848C93.565 3.3848 93.3632 3.66497 93.3632 3.94286C93.3632 4.18431 93.5287 4.42576 93.8824 4.42576H93.9186C94.1045 4.40754 94.1408 4.40754 94.2156 4.40754C94.9569 4.40754 94.9569 4.72416 94.9569 5.99062C94.9569 7.07031 94.9388 8.56 94.9388 9.50985C94.9388 9.7513 94.9207 9.84469 94.8821 9.84469C94.8436 9.84469 94.7892 9.7513 94.6962 9.62146C94.066 8.80145 92.9551 8.28211 91.7695 8.28211C89.3619 8.28211 87.5641 10.0884 87.5664 12.6942C87.5664 15.3935 89.3642 17.1428 91.774 17.1405C92.8871 17.1405 94.0887 16.6371 94.8685 15.578C94.9048 15.5415 94.9252 15.521 94.9433 15.521C94.9977 15.521 95.0159 15.5939 95.0363 15.7078C95.1678 16.6941 95.9454 17.0289 96.7229 17.0289C96.9632 17.0289 97.4643 16.972 97.4643 16.4526C97.4643 16.1725 97.2965 15.9128 96.9814 15.9128H96.9768ZM91.808 16.1201C89.9559 16.1201 88.6591 14.8172 88.6591 12.6942C88.6591 10.5531 89.9355 9.25018 91.808 9.25018C93.5672 9.25018 94.9388 10.6078 94.9388 12.692C94.9388 14.7579 93.5491 16.1178 91.808 16.1178V16.1201Z" fill="white"/>
<path d="M106.825 15.9174C106.063 15.6487 105.93 15.1908 105.93 13.7945C105.93 13.0679 105.968 12.0725 106.025 11.4415C106.043 11.2502 106.043 11.0771 106.043 10.9062C106.043 8.76282 104.841 7.97925 103.071 7.97925C101.434 7.97925 99.8357 8.80154 99.8357 9.53044C99.8357 9.83567 100.083 10.0475 100.368 10.0475C100.502 10.0475 100.654 9.99056 100.767 9.85617C101.205 9.37783 101.967 8.93821 102.996 8.93821C104.538 8.93821 104.975 9.7605 104.975 10.8129C104.975 10.9085 104.957 11.0224 104.957 11.1181C104.957 11.2525 104.88 11.3094 104.653 11.3481C103.853 11.4825 102.311 11.7695 101.132 12.1317C99.7224 12.5713 99.0944 13.5485 99.0967 14.5029C99.0967 15.8241 100.26 17.1429 102.182 17.1429C103.286 17.1429 104.506 16.5871 105.075 15.6692C105.093 15.6304 105.132 15.6122 105.152 15.6122C105.19 15.6122 105.209 15.6509 105.227 15.7079C105.399 16.4163 106.084 16.9311 106.637 16.9311C106.961 16.9311 107.151 16.6623 107.151 16.3958C107.151 16.2044 107.056 15.9949 106.827 15.9174H106.825ZM104.939 12.7809C104.939 15.7261 103.132 16.1293 102.159 16.1293C100.885 16.1293 100.124 15.3252 100.124 14.5234C100.124 13.1841 101.704 12.8014 104.692 12.323H104.748C104.882 12.323 104.939 12.38 104.939 12.5349V12.7832V12.7809Z" fill="white"/>
<path d="M113.334 16.0518H113.257C113.066 16.07 112.894 16.0905 112.724 16.0905C111.239 16.0905 111.2 15.0769 111.2 13.5849C111.2 12.1681 111.257 10.2 111.257 9.47114C111.257 9.24108 111.257 9.20236 111.561 9.20236H113.236C113.599 9.20236 113.769 8.95408 113.769 8.68529C113.769 8.43701 113.597 8.18645 113.236 8.18873H111.543C111.296 8.18873 111.257 8.18873 111.257 7.97917C111.257 7.97917 111.296 6.44848 111.296 5.89497C111.296 5.49407 111.028 5.30273 110.745 5.30273C110.477 5.30273 110.192 5.49407 110.192 5.85852V6.33686C110.192 7.00654 110.173 7.9245 110.173 8.00195C110.173 8.17279 110.137 8.19329 109.965 8.19329H108.861C108.498 8.19329 108.328 8.44157 108.328 8.69213C108.328 8.96091 108.5 9.20919 108.861 9.20919H109.983C110.117 9.20919 110.173 9.22741 110.173 9.41875V9.72398C110.173 10.6624 110.137 12.9949 110.137 14.2181C110.137 15.0609 110.137 17.1451 112.574 17.1451C113.336 17.1451 113.792 17.0494 113.792 16.5506C113.792 16.3023 113.619 16.054 113.334 16.054V16.0518Z" fill="white"/>
<path d="M123.347 15.9174C122.585 15.6487 122.451 15.1908 122.451 13.7945C122.451 13.0679 122.49 12.0725 122.547 11.4415C122.565 11.2502 122.565 11.0771 122.565 10.9062C122.565 8.76282 121.363 7.97925 119.593 7.97925C117.956 7.97925 116.358 8.80154 116.358 9.53044C116.358 9.83567 116.605 10.0475 116.89 10.0475C117.024 10.0475 117.176 9.99056 117.289 9.85617C117.727 9.37783 118.489 8.93821 119.518 8.93821C121.06 8.93821 121.497 9.7605 121.497 10.8129C121.497 10.9085 121.479 11.0247 121.479 11.1181C121.479 11.2525 121.402 11.3094 121.175 11.3481C120.375 11.4825 118.833 11.7695 117.654 12.1317C116.244 12.5713 115.616 13.5485 115.619 14.5029C115.619 15.8241 116.782 17.1429 118.704 17.1429C119.808 17.1429 121.028 16.5871 121.597 15.6692C121.615 15.6304 121.654 15.6122 121.674 15.6122C121.712 15.6122 121.731 15.6509 121.749 15.7079C121.921 16.4163 122.606 16.9311 123.159 16.9311C123.483 16.9311 123.673 16.6623 123.673 16.3958C123.673 16.2044 123.578 15.9949 123.349 15.9174H123.347ZM121.461 12.7809C121.461 15.7261 119.654 16.1293 118.681 16.1293C117.407 16.1293 116.646 15.3252 116.646 14.5234C116.646 13.1841 118.226 12.8014 121.214 12.323H121.27C121.404 12.323 121.461 12.38 121.461 12.5349V12.7832V12.7809Z" fill="white"/>
<path d="M129.781 12.3025C129.192 11.9972 128.278 11.6146 127.745 11.3663C127.117 11.061 126.811 10.5622 126.811 10.1044C126.811 9.47341 127.364 8.8789 128.353 8.8789C128.466 8.8789 130.162 8.8789 130.162 10.4096C130.162 10.7535 130.429 10.9062 130.695 10.9062C130.772 10.9062 131.171 10.8492 131.171 10.4483V10.4096C131.153 9.96997 131.153 9.68297 131.153 9.41419C131.153 9.12718 131.153 8.86068 131.171 8.4575V8.43928C131.171 8.13405 130.942 7.97916 130.695 7.97916C130.504 7.97916 130.316 8.07483 130.257 8.28439C130.239 8.34133 130.257 8.51445 130.162 8.51445C130.123 8.51445 130.085 8.51445 130.049 8.47572C129.763 8.24794 129.058 7.96094 128.373 7.96094C126.68 7.96094 125.784 9.05201 125.784 10.1613C125.784 11.0041 126.281 11.8446 127.328 12.2842C129.536 13.2022 130.375 13.66 130.375 14.6737C130.375 15.5916 129.443 16.1474 128.471 16.1474C127.385 16.1474 126.433 15.5165 126.433 14.8855C126.433 14.7511 126.471 14.6554 126.471 14.5211C126.471 14.1771 126.224 14.004 125.957 14.004C125.689 14.004 125.424 14.1771 125.424 14.5028V14.5416C125.442 14.9994 125.462 15.2864 125.462 15.5734C125.462 15.8604 125.444 16.1474 125.426 16.5688V16.6075C125.426 16.9128 125.673 17.0654 125.92 17.0654C126.149 17.0654 126.376 17.0084 126.376 16.5301C126.376 16.4731 126.394 16.4344 126.433 16.4344C126.471 16.4344 126.528 16.4731 126.566 16.5119C126.965 16.8558 127.652 17.1428 128.471 17.1428C130.64 17.1428 131.477 15.726 131.477 14.6737C131.477 13.8127 130.962 12.9152 129.781 12.3025Z" fill="white"/>
<path d="M141.869 16.1064C141.756 16.1064 141.66 16.1246 141.583 16.1246C141.393 16.1246 141.221 16.0859 141.03 15.8946C137.584 12.7193 137.088 12.2615 137.088 12.1271C137.088 12.0701 137.126 12.0132 137.24 11.9357C138.171 11.323 139.638 10.3276 140.76 9.56225C140.894 9.46658 141.085 9.38913 141.236 9.38913C141.504 9.38913 141.35 9.40735 141.617 9.40735H141.635C141.978 9.40735 142.168 9.15907 142.168 8.91079C142.168 8.45067 141.808 8.39372 141.615 8.41195C141.121 8.43017 140.663 8.43245 140.246 8.43245C139.829 8.43245 139.389 8.43245 138.913 8.41423H138.874C138.532 8.41423 138.36 8.66251 138.36 8.91307C138.36 9.37091 138.815 9.37091 139.16 9.37091C139.255 9.37091 139.294 9.38913 139.294 9.42785C139.294 9.44608 139.275 9.4848 139.217 9.52352C136.21 11.61 136.133 11.6282 135.925 11.6282C135.734 11.6282 135.601 11.5326 135.601 11.323C135.601 11.323 135.637 7.26848 135.637 4.79933C135.637 4.38021 135.503 3.3643 133.943 3.36658C133.277 3.36658 132.935 3.42353 132.935 3.92009C132.935 4.18887 133.125 4.45538 133.467 4.45538H133.905C134.381 4.4736 134.533 4.68544 134.533 5.22072C134.533 6.25485 134.553 7.53499 134.553 8.87434C134.553 11.2068 134.535 13.7899 134.499 15.7989C134.499 16.0085 134.365 16.1246 134.175 16.1246C133.871 16.1246 133.832 16.1064 133.603 16.1064H133.585C133.222 16.1064 133.032 16.3752 133.032 16.6417C133.032 16.8513 133.166 17.1588 133.603 17.1383C134.041 17.12 134.499 17.0995 134.973 17.0995C135.467 17.0995 135.963 17.1178 136.458 17.1383H136.476C136.838 17.1383 137.027 16.89 137.027 16.6212C137.027 16.3524 136.836 16.1041 136.473 16.1041H136.455C136.188 16.1224 136.208 16.1224 135.923 16.1224C135.694 16.1224 135.598 15.988 135.598 15.7966C135.58 14.8787 135.58 14.2659 135.578 13.8081C135.578 12.8127 135.596 12.6419 135.882 12.6419C136.072 12.6419 136.263 12.6601 136.453 12.8719C137.042 13.4824 138.604 14.9379 139.613 15.931C139.631 15.9492 139.652 15.988 139.652 16.0085C139.652 16.029 139.652 16.1429 139.155 16.1429C139.022 16.1429 138.641 16.1429 138.643 16.6417C138.643 16.89 138.813 17.1383 139.158 17.1383H139.196C139.634 17.12 140.053 17.0995 140.472 17.0995C140.892 17.0995 141.348 17.1178 141.842 17.1383H141.86C142.223 17.1383 142.393 16.8695 142.393 16.603C142.393 16.2773 142.164 16.0859 141.86 16.1064H141.869Z" fill="white"/>
<path d="M151.311 14.6943C151.177 14.6943 151.044 14.7512 150.93 14.8651C150.341 15.5348 149.561 16.127 148.169 16.1293C146.342 16.1293 144.97 14.8492 144.97 12.7627C144.97 12.4939 145.009 12.4187 145.199 12.4187C145.619 12.4187 147.235 12.4369 148.663 12.4369C149.368 12.4369 150.014 12.4369 150.452 12.4187C151.422 12.38 151.842 11.8447 151.842 11.1363C151.842 10.0452 150.699 7.99976 148.09 7.99976C145.843 7.99976 143.846 9.83568 143.846 12.6306C143.846 15.3275 145.732 17.1452 148.149 17.1429C150.547 17.1429 151.88 15.6874 151.88 15.2478C151.88 14.9425 151.594 14.6943 151.309 14.6943H151.311ZM148.112 8.95644C150.055 8.95644 150.722 10.3915 150.722 10.945C150.722 11.2502 150.549 11.462 150.094 11.4803C149.561 11.4985 148.495 11.4985 147.505 11.5008C145.297 11.5008 145.124 11.5008 145.124 11.3094C145.124 10.601 146.285 8.95644 148.112 8.95644Z" fill="white"/>
<path d="M158.316 16.054H158.239C158.049 16.0723 157.876 16.0928 157.706 16.0928C156.221 16.0928 156.183 15.0791 156.183 13.5872C156.183 12.1726 156.24 10.2023 156.24 9.4757C156.24 9.24564 156.24 9.20691 156.543 9.20691H158.219C158.581 9.20691 158.751 8.95863 158.751 8.68985C158.751 8.44157 158.579 8.19101 158.219 8.19101H156.525C156.278 8.19101 156.24 8.19101 156.24 7.98145C156.24 7.98145 156.278 6.45075 156.278 5.89497C156.278 5.49407 156.011 5.30273 155.725 5.30273C155.457 5.30273 155.174 5.49407 155.174 5.85852V6.33686C155.174 7.00654 155.156 7.9245 155.156 8.00195C155.156 8.17278 155.117 8.19328 154.947 8.19328H153.843C153.481 8.19328 153.311 8.44384 153.311 8.69213C153.311 8.96091 153.483 9.20919 153.843 9.20919H154.965C155.099 9.20919 155.156 9.22741 155.156 9.41875V9.72398C155.156 10.6624 155.12 12.9949 155.12 14.2204C155.12 15.0609 155.12 17.1474 157.557 17.1451C158.318 17.1451 158.774 17.0494 158.774 16.5529C158.774 16.3046 158.602 16.0563 158.316 16.0563V16.054Z" fill="white"/>
<path d="M167.93 14.7125C167.76 14.7125 167.588 14.7876 167.436 14.9995C166.903 15.7261 165.969 16.1088 164.999 16.1088C162.809 16.1088 161.687 14.2933 161.687 12.5508C161.687 10.4279 163.133 8.93592 164.999 8.93592C165.743 8.93592 166.466 9.1637 166.942 9.71949C167.171 9.98827 167.112 10.2183 167.132 10.6192C167.153 10.9245 167.418 11.0771 167.665 11.0771C167.951 11.0771 168.216 10.9245 168.216 10.5987V10.56C168.198 10.1204 168.198 9.81516 168.198 9.52815C168.198 9.22292 168.198 8.93592 168.216 8.53274V8.49402C168.216 8.16829 167.949 8.01568 167.663 8.01568C167.454 8.01568 167.225 8.11135 167.207 8.34141C167.189 8.43707 167.169 8.55097 167.112 8.55097C167.074 8.55097 167.055 8.53274 167.017 8.51224C166.466 8.18651 165.684 7.93823 164.865 7.93823C162.467 7.93823 160.583 9.94727 160.583 12.626C160.583 14.9015 162.127 17.1406 165.058 17.1383C167.114 17.1383 168.54 15.8559 168.54 15.3024C168.54 14.9767 168.255 14.7102 167.93 14.7102V14.7125Z" fill="white"/>
<path d="M179.447 16.1064H179.429C179.161 16.1064 179.182 16.1247 178.896 16.1247C178.667 16.1247 178.572 15.9903 178.572 15.7807C178.572 14.2705 178.551 12.0702 178.533 11.2661C178.456 9.18188 176.933 8.2047 175.353 8.20697C174.287 8.20697 173.201 8.64659 172.535 9.50761C172.496 9.54633 172.478 9.56455 172.458 9.56455C172.437 9.56455 172.419 9.52583 172.419 9.46888C172.419 9.2001 172.437 7.48035 172.437 5.93143C172.437 5.54876 172.437 5.18431 172.437 4.84036C172.437 4.05679 172.038 3.48278 171.143 3.38711C170.991 3.36889 170.818 3.34839 170.667 3.34839C169.848 3.34839 169.696 3.59667 169.696 3.9224C169.696 4.19118 169.887 4.45769 170.229 4.45769H170.247C170.412 4.44554 170.552 4.43946 170.667 4.43946C171.163 4.45769 171.313 4.72647 171.313 5.22303C171.313 6.37105 171.333 7.91997 171.333 9.54633C171.333 11.8401 171.315 14.2523 171.297 15.8012C171.297 16.0108 171.183 16.1269 170.993 16.1269C170.689 16.1269 170.63 16.1087 170.383 16.1087H170.365C170.002 16.1087 169.814 16.3775 169.814 16.644C169.814 16.8536 169.948 17.1588 170.385 17.1406C170.823 17.1224 171.299 17.1019 171.775 17.1019C172.251 17.1019 172.766 17.1201 173.26 17.1406H173.278C173.641 17.1406 173.831 16.8718 173.829 16.6235C173.829 16.3183 173.582 16.0882 173.258 16.1064C172.99 16.1247 173.011 16.1247 172.725 16.1247C172.496 16.1247 172.401 15.9903 172.401 15.7989C172.401 14.8992 172.383 14.0587 172.38 13.3503C172.38 12.6624 172.399 12.0884 172.399 11.7239C172.455 10.2137 173.902 9.21833 175.235 9.21833C176.321 9.21833 177.329 9.888 177.425 11.4734C177.443 11.8378 177.463 12.7353 177.463 13.7307C177.463 14.4391 177.445 15.1657 177.445 15.7967C177.445 15.988 177.332 16.1224 177.141 16.1224C176.837 16.1224 176.817 16.1042 176.57 16.1042H176.552C176.189 16.1042 176.001 16.373 176.001 16.6395C176.001 16.849 176.135 17.1565 176.572 17.1383C177.01 17.1178 177.468 17.0996 177.944 17.0996C178.42 17.0996 178.934 17.1178 179.429 17.1383H179.447C179.807 17.1383 180 16.89 179.998 16.6212C179.998 16.3525 179.807 16.1042 179.445 16.1042L179.447 16.1064Z" fill="white"/>
<path d="M83.504 13.1271L81.3254 11.4939V1.75847C81.3254 0.788125 80.541 0 79.5752 0H65.3473C64.3816 0 63.5972 0.788125 63.5972 1.75847V12.1271C63.5972 13.0975 64.3816 13.8856 65.3473 13.8856H71.6973L68.469 16.3001C68.2627 16.455 68.2196 16.7488 68.3738 16.9561C68.528 17.1634 68.8204 17.2066 69.0267 17.0517L72.4794 14.4664L75.9321 17.0517C76.016 17.1132 76.1134 17.1451 76.2109 17.1451C76.3538 17.1451 76.492 17.0791 76.585 16.9561C76.7391 16.7488 76.6961 16.455 76.4898 16.3001L73.2615 13.8856H79.5729C80.4027 13.8856 81.0964 13.3025 81.2755 12.5234L82.9939 13.8104C83.0687 13.8674 83.1571 13.8947 83.2455 13.8947C83.3747 13.8947 83.5017 13.8355 83.5856 13.7238C83.7239 13.5348 83.6853 13.2683 83.4994 13.1293L83.504 13.1271ZM80.4797 10.8606L76.0704 7.5578C75.8822 7.41885 75.617 7.45757 75.4787 7.64436C75.3404 7.83341 75.3789 8.09992 75.5648 8.23886L80.4797 11.9198V12.1248C80.4797 12.6259 80.0739 13.0314 79.9017 13.0314H65.6738C64.8508 13.0314 64.4473 12.6237 64.4473 12.1248V1.75847C64.4473 1.25736 64.8531 0.851904 65.3496 0.851904H79.5775C80.0762 0.851904 80.4797 1.25963 80.4797 1.75847V10.8606Z" fill="white"/>
<path d="M4.53197 8.248C3.79065 7.81293 2.93598 7.60793 2.07904 7.6626C1.76166 7.6626 1.41253 7.67626 1.03621 7.70132C0.687085 7.72182 0.342496 7.76965 0.00244141 7.84482V15.1247H1.33772V12.5189H2.00423C2.48484 12.5257 2.96545 12.4779 3.43473 12.38C3.81105 12.3048 4.17151 12.159 4.4957 11.9495C4.77908 11.7627 5.00578 11.5007 5.15767 11.1955C5.31863 10.847 5.39798 10.4643 5.38664 10.0794C5.44105 9.36185 5.11686 8.66711 4.53197 8.248ZM3.46646 11.0998C2.99946 11.3071 2.49391 11.4005 1.98609 11.3732H1.33772V8.86073C1.55536 8.84023 1.83647 8.82884 2.17199 8.82884C2.4123 8.82884 2.65033 8.84706 2.8861 8.88806C3.08787 8.91995 3.28284 8.98601 3.4642 9.08396C3.62289 9.17507 3.75664 9.30718 3.84506 9.46663C3.94254 9.65341 3.99015 9.86297 3.98335 10.0748C4.02869 10.4894 3.82692 10.8903 3.46873 11.0998H3.46646Z" fill="white"/>
<path d="M10.621 10.2115C10.3853 9.95635 10.0996 9.75362 9.77769 9.61923C9.43537 9.47801 9.07037 9.40739 8.70085 9.41195C8.33359 9.40739 7.9686 9.47801 7.63081 9.61923C7.31116 9.75362 7.02324 9.95635 6.78747 10.2115C6.54263 10.478 6.35447 10.7923 6.23205 11.134C6.0983 11.5189 6.03028 11.9244 6.03709 12.3321C6.03255 12.7421 6.0983 13.1498 6.23205 13.5348C6.3522 13.8787 6.53583 14.1954 6.77841 14.4641C7.01191 14.7193 7.29529 14.922 7.61267 15.0587C7.95499 15.2044 8.32225 15.2773 8.69405 15.2728C9.06584 15.2773 9.43537 15.2044 9.77995 15.0587C10.0996 14.922 10.3875 14.7193 10.6233 14.4641C10.8636 14.1931 11.0495 13.8765 11.1651 13.5348C11.2966 13.1476 11.3601 12.7398 11.3555 12.3321C11.3601 11.9244 11.2943 11.5189 11.1583 11.134C11.0404 10.7946 10.8568 10.4802 10.6188 10.2115H10.621ZM9.69381 13.6624C9.4671 13.9835 9.09531 14.168 8.70311 14.1521C8.31092 14.168 7.93913 13.9835 7.71242 13.6624C7.45625 13.2683 7.33156 12.8013 7.35877 12.3321C7.33383 11.8674 7.45851 11.4073 7.71242 11.0178C7.94139 10.6989 8.31319 10.5167 8.70311 10.5326C9.09304 10.5167 9.4671 10.6989 9.69381 11.0178C9.94998 11.4073 10.0747 11.8674 10.0497 12.3321C10.0747 12.8036 9.94998 13.2683 9.69154 13.6624H9.69381Z" fill="white"/>
<path d="M18.3152 10.5144C18.229 10.8583 18.1384 11.2114 18.0431 11.569C17.9479 11.9289 17.8504 12.2774 17.7507 12.6191C17.6509 12.9585 17.5557 13.2705 17.4628 13.5553C17.3562 13.2295 17.2519 12.8924 17.1522 12.5439C17.0502 12.1954 16.955 11.8469 16.8665 11.5007C16.7781 11.1522 16.6943 10.8128 16.6172 10.4848C16.5401 10.1545 16.4698 9.8447 16.4041 9.55542H15.4315C15.3703 9.84698 15.2978 10.1568 15.2139 10.4848C15.13 10.8128 15.0439 11.1522 14.9532 11.5007C14.8602 11.8492 14.765 12.1954 14.6607 12.5439C14.5587 12.8924 14.4544 13.2295 14.3479 13.5553C14.2481 13.2705 14.1506 12.9608 14.0486 12.6191C13.9489 12.2774 13.8537 11.9289 13.7607 11.569C13.6678 11.2091 13.5794 10.8583 13.4955 10.5144C13.4093 10.1704 13.3345 9.84926 13.2733 9.54858H11.9131C12.0604 10.0953 12.2123 10.6305 12.3688 11.1567C12.5252 11.6829 12.6816 12.184 12.838 12.6578C12.9945 13.1339 13.1486 13.5803 13.3005 13.9994C13.4547 14.4186 13.602 14.7898 13.7471 15.1156H14.8013C14.9872 14.5894 15.1708 14.0313 15.3567 13.4414C15.5426 12.8514 15.7172 12.241 15.8804 11.6146C16.0436 12.2387 16.2204 12.8491 16.4154 13.4414C16.6104 14.0336 16.7985 14.5917 16.9822 15.1156H18.0227C18.1701 14.7898 18.322 14.4163 18.4784 13.9994C18.6348 13.5826 18.789 13.1339 18.9409 12.6578C19.0973 12.1817 19.2515 11.6829 19.4034 11.1567C19.5575 10.6305 19.7094 10.0953 19.859 9.54858H18.5351C18.4739 9.84698 18.3991 10.1682 18.3129 10.5144H18.3152Z" fill="white"/>
<path d="M23.1101 9.41418C22.7836 9.41418 22.4595 9.47796 22.1557 9.60097C21.8451 9.72625 21.5617 9.91758 21.3282 10.159C21.0766 10.4233 20.8793 10.7376 20.7501 11.0793C20.5982 11.4916 20.5234 11.9289 20.5325 12.3685C20.5279 12.7603 20.5846 13.1498 20.7025 13.5256C20.8091 13.865 20.9859 14.1771 21.2217 14.4413C21.4688 14.7101 21.7725 14.9174 22.1126 15.0495C22.5184 15.1998 22.9491 15.2727 23.3821 15.2636C23.5703 15.2636 23.7585 15.2522 23.9444 15.2317C24.1303 15.2112 24.298 15.1839 24.459 15.152C24.6018 15.1247 24.7424 15.0882 24.8829 15.045C24.9827 15.0153 25.0801 14.9766 25.1754 14.9333L25.0053 13.8787C24.8081 13.9584 24.6041 14.0177 24.3955 14.0609C24.1144 14.1202 23.8287 14.1498 23.5431 14.1475C23.1078 14.1771 22.6748 14.0473 22.3302 13.7808C22.0401 13.512 21.87 13.1384 21.8587 12.7421H25.5154C25.5222 12.6715 25.5267 12.5917 25.5313 12.5029C25.5358 12.4141 25.5358 12.3343 25.5358 12.2637C25.5925 11.4984 25.3635 10.7399 24.8942 10.134C24.4318 9.64197 23.7789 9.38229 23.1078 9.41874L23.1101 9.41418ZM21.87 11.7922C21.8904 11.6282 21.929 11.4665 21.9856 11.3093C22.0401 11.159 22.1194 11.0178 22.2237 10.8948C22.328 10.7718 22.4572 10.6738 22.6 10.6032C22.761 10.5258 22.9401 10.487 23.1192 10.4916C23.2892 10.487 23.4569 10.5212 23.6111 10.5941C23.7471 10.6602 23.8673 10.7558 23.9602 10.8743C24.06 10.9973 24.1325 11.1385 24.1779 11.2911C24.2277 11.4551 24.2527 11.6259 24.2527 11.7968H21.8678L21.87 11.7922Z" fill="white"/>
<path d="M29.6909 9.48937C29.5776 9.47115 29.4642 9.45748 29.3531 9.4461C29.2421 9.43471 29.14 9.43015 29.0562 9.43015C28.6413 9.4256 28.2287 9.4666 27.8229 9.55315C27.5078 9.61921 27.1995 9.70577 26.8979 9.81282V15.1156H28.1811V10.6511C28.2899 10.6192 28.401 10.5941 28.5143 10.5759C28.664 10.5486 28.8136 10.5349 28.9655 10.5326C29.1831 10.5303 29.4008 10.5508 29.6139 10.5918C29.7635 10.6214 29.9108 10.6579 30.0537 10.7035L30.2758 9.61693C30.2123 9.59643 30.1285 9.57365 30.0219 9.5486C29.9154 9.52354 29.8088 9.51215 29.6955 9.48937H29.6909Z" fill="white"/>
<path d="M33.434 9.41199C33.1076 9.41199 32.7834 9.47577 32.4796 9.59877C32.169 9.72405 31.8856 9.91539 31.6521 10.1568C31.4005 10.4211 31.2033 10.7354 31.074 11.0771C30.9221 11.4894 30.8496 11.9267 30.8564 12.3663C30.8519 12.7581 30.9085 13.1476 31.0264 13.5234C31.133 13.8606 31.3098 14.1726 31.5433 14.4346C31.7904 14.7034 32.0942 14.9106 32.4342 15.0428C32.84 15.1954 33.273 15.2705 33.7061 15.2614C33.8942 15.2614 34.0824 15.25 34.2683 15.2295C34.4542 15.209 34.6219 15.1817 34.7829 15.1498C34.9257 15.1225 35.0663 15.086 35.2068 15.0428C35.3066 15.0131 35.4041 14.9744 35.4993 14.9311L35.3292 13.8765C35.132 13.9562 34.928 14.0155 34.7194 14.0587C34.4383 14.118 34.1527 14.1476 33.8647 14.1453C33.4295 14.1749 32.9965 14.0451 32.6519 13.7786C32.3617 13.5098 32.1917 13.1362 32.1803 12.7399H35.8371C35.8439 12.6693 35.8484 12.5895 35.8529 12.5007C35.8575 12.4119 35.8575 12.3322 35.8575 12.2615C35.9141 11.4962 35.6852 10.7377 35.2159 10.1318C34.7534 9.63977 34.1005 9.3801 33.4295 9.41654L33.434 9.41199ZM32.1917 11.79C32.2121 11.626 32.2529 11.4643 32.3073 11.3094C32.3617 11.1568 32.441 11.0156 32.5453 10.8926C32.6496 10.7696 32.7788 10.6716 32.9217 10.601C33.0826 10.5236 33.2617 10.4848 33.4408 10.4894C33.6108 10.4848 33.7809 10.519 33.935 10.5919C34.071 10.658 34.1889 10.7536 34.2841 10.8721C34.3839 10.9951 34.4564 11.1363 34.5018 11.2889C34.5517 11.4529 34.5766 11.6237 34.5766 11.7946H32.1917V11.79Z" fill="white"/>
<path d="M40.618 9.74684C40.448 9.66028 40.2712 9.58967 40.0875 9.53272C39.8563 9.46666 39.6183 9.43477 39.378 9.43933C39.0175 9.4325 38.6593 9.50311 38.3283 9.64661C38.0291 9.781 37.7638 9.98373 37.5553 10.2366C37.3354 10.5076 37.1721 10.822 37.0724 11.1568C36.959 11.5463 36.9046 11.9495 36.9092 12.3549C36.9024 12.7672 36.9704 13.175 37.1041 13.5645C37.2243 13.9061 37.417 14.2182 37.6663 14.4801C37.9157 14.7353 38.2172 14.9334 38.5505 15.061C38.9268 15.1999 39.3258 15.266 39.7271 15.2569C40.1329 15.2592 40.5387 15.2273 40.9399 15.1635C41.2641 15.1134 41.5838 15.0428 41.8989 14.9494V6.86084L40.6158 7.07495V9.74684H40.618ZM40.618 14.0587C40.5251 14.0792 40.4072 14.0997 40.2621 14.118C40.0875 14.1362 39.913 14.1453 39.7384 14.143C39.3145 14.1635 38.9019 13.9859 38.6276 13.6601C38.3397 13.2775 38.1968 12.8037 38.224 12.323C38.1991 11.8675 38.3124 11.4142 38.546 11.0224C38.7795 10.6944 39.1671 10.5122 39.5684 10.5441C39.7724 10.5441 39.9742 10.576 40.1669 10.6443C40.3256 10.699 40.4775 10.7719 40.618 10.863V14.0587Z" fill="white"/>
<path d="M50.3597 10.232C50.1534 9.97685 49.8904 9.77413 49.5912 9.64201C49.2624 9.49851 48.9065 9.4279 48.5483 9.43473C48.3057 9.43018 48.0654 9.46207 47.8319 9.52812C47.6438 9.58051 47.4601 9.6534 47.2856 9.74224V6.85852L46.0024 7.07264V14.9539C46.3176 15.045 46.6372 15.1179 46.9614 15.168C47.3627 15.2341 47.7685 15.2659 48.1743 15.2637C48.5755 15.2705 48.9745 15.2022 49.3531 15.0609C49.6864 14.9334 49.9902 14.7329 50.2373 14.4755C50.4866 14.2113 50.6771 13.897 50.7995 13.5553C50.9355 13.1658 51.0012 12.7581 50.9944 12.3458C50.999 11.9449 50.9446 11.544 50.8312 11.1568C50.7337 10.8219 50.575 10.5099 50.3597 10.2365V10.232ZM49.2783 13.6533C49.0017 13.979 48.5914 14.1566 48.1675 14.1361C47.9929 14.1361 47.8161 14.1293 47.6415 14.1111C47.5214 14.0974 47.4035 14.0769 47.2878 14.0519V10.8493C47.4261 10.7581 47.578 10.6875 47.7367 10.6374C47.9294 10.5736 48.1312 10.5418 48.3352 10.544C48.7342 10.5144 49.1219 10.6966 49.3531 11.0224C49.5889 11.4142 49.7022 11.8674 49.6773 12.3253C49.7045 12.8013 49.5617 13.2706 49.2783 13.651V13.6533Z" fill="white"/>
<path d="M55.4063 9.55086C55.243 10.2183 55.0639 10.9084 54.8667 11.6237C54.6695 12.3366 54.4587 13.0109 54.2342 13.6418C54.1005 13.3366 53.9644 13.0063 53.8307 12.651C53.6947 12.2956 53.5677 11.938 53.4476 11.5804C53.3274 11.2205 53.2163 10.8674 53.112 10.5189C53.0078 10.1704 52.9216 9.84698 52.8513 9.54858H51.4843C51.7609 10.5463 52.0941 11.528 52.4795 12.4892C52.8491 13.4118 53.239 14.2659 53.6448 15.045C53.5382 15.3274 53.3705 15.5825 53.1483 15.7898C52.9239 15.9606 52.6473 16.0426 52.3662 16.0267C52.1077 16.0267 51.8516 15.9743 51.609 15.8786L51.3755 16.9105C51.516 16.9743 51.6634 17.0198 51.8153 17.0494C52.008 17.0927 52.2052 17.1132 52.4047 17.1132C52.67 17.1178 52.9352 17.0836 53.1891 17.013C53.4135 16.9469 53.6221 16.8353 53.8057 16.6873C54.0007 16.5255 54.1685 16.3365 54.3045 16.1224C54.47 15.8604 54.6151 15.5871 54.7398 15.3024C55.5446 13.4391 56.2111 11.5166 56.7302 9.55086H55.404H55.4063Z" fill="white"/>
</g>
<defs>
<clipPath id="clip0_83_33">
<rect width="180" height="17.1429" fill="white"/>
</clipPath>
</defs>
</svg>
