<svg width="262" height="100" viewBox="0 0 262 100" fill="none" xmlns="http://www.w3.org/2000/svg">
<g clip-path="url(#clip0_216_902)">
<path d="M103.198 2.2548C101.545 2.61558 99.8916 2.88617 98.29 3.34358C94.6474 4.37438 92.9747 6.40375 92.8133 10.1726C92.6195 14.7918 92.6066 19.424 92.4774 24.0497C92.458 24.7261 92.7616 24.797 93.3105 24.797C97.3664 24.7841 101.416 24.7906 105.472 24.7906C112.259 24.7906 119.054 24.7906 125.841 24.7906C126.171 24.7906 126.5 24.7906 126.913 24.7906C126.939 24.4427 126.972 24.1721 126.972 23.9015C126.959 20.2228 126.997 16.5442 126.901 12.8656C126.855 11.2549 126.629 9.63787 126.326 8.05947C125.938 6.08163 124.711 4.60631 122.819 3.96206C120.83 3.2856 118.744 2.90549 116.703 2.39654C116.58 2.36433 116.457 2.35788 116.296 2.33211V1.14026H145.281V2.26769C143.834 2.56404 142.401 2.83463 140.98 3.15675C140.353 3.29848 139.746 3.52397 139.146 3.74946C136.582 4.70294 135.251 6.63568 134.961 9.27065C134.754 11.1841 134.605 13.1168 134.599 15.0367C134.567 25.2802 134.56 35.5173 134.599 45.7608C134.605 47.861 134.786 49.9742 135.064 52.0551C135.419 54.7545 137.092 56.4489 139.656 57.2219C141.18 57.6858 142.749 57.995 144.312 58.3043C145.339 58.5104 145.352 58.4525 145.268 59.6185H116.302V58.4911C117.407 58.285 118.55 58.1368 119.661 57.8469C120.849 57.5312 122.05 57.1833 123.168 56.6808C125.389 55.6822 126.352 53.7495 126.61 51.4559C126.817 49.5941 126.946 47.7129 126.965 45.8446C127.01 40.8259 126.985 35.8072 126.978 30.7949C126.978 30.621 126.952 30.4406 126.939 30.2022H92.5549C92.5355 30.4664 92.5097 30.6919 92.5097 30.9173C92.5162 36.0391 92.4839 41.1609 92.5614 46.2762C92.5937 48.2476 92.781 50.2254 93.0716 52.1775C93.5301 55.257 95.6808 56.7645 98.4902 57.5119C99.756 57.8469 101.054 58.0852 102.346 58.3107C103.399 58.4911 103.437 58.504 103.192 59.6314H74.3617C74.155 58.4525 74.1615 58.5104 75.1948 58.3043C76.7577 57.995 78.3271 57.6794 79.8577 57.2284C82.8544 56.3393 84.3592 54.1875 84.6369 51.1596C84.8049 49.2913 84.9534 47.4165 84.9534 45.5418C84.9792 35.0663 84.9857 24.5973 84.9276 14.1218C84.9147 12.1311 84.6628 10.1211 84.3269 8.15611C83.9717 6.08163 82.6801 4.56765 80.6844 3.90408C78.7404 3.25339 76.7061 2.87972 74.7169 2.3901C74.5942 2.35788 74.4715 2.35144 74.31 2.32567V1.08228H75.2594C84.2688 1.08228 93.2783 1.08228 102.288 1.08228C103.399 1.08228 103.45 1.1467 103.211 2.24192L103.198 2.2548Z" fill="#024230"/>
<path d="M231.255 60.6495C223.305 60.6301 217.086 59.2386 211.486 55.6759C204.627 51.3208 200.552 45.0394 198.996 37.1409C197.762 30.8595 198.092 24.6361 200.423 18.6317C203.381 10.9973 208.761 5.61144 216.375 2.66079C225.85 -1.00497 235.434 -0.901893 244.786 3.06022C253.375 6.70022 258.426 13.4648 260.551 22.4134C262.133 29.0685 261.875 35.7042 259.395 42.1274C255.991 50.9471 249.468 56.449 240.497 59.187C237.049 60.2371 233.496 60.6817 231.255 60.6559V60.6495ZM209.432 27.2259C209.432 32.5087 210.072 36.5031 211.357 40.3879C212.972 45.2713 215.381 49.6844 219.411 53.0473C225.133 57.8212 233.406 58.5428 239.651 54.7997C243.52 52.4804 246.032 49.0079 247.744 44.9363C250.527 38.3134 251.05 31.4715 249.52 24.4621C248.331 18.9989 246.161 13.9931 242.344 9.81837C239.018 6.17194 234.95 3.86553 229.938 3.66582C223.415 3.40168 218.177 5.95289 214.425 11.3001C210.821 16.4283 209.516 22.2588 209.426 27.2388L209.432 27.2259Z" fill="#024230"/>
<path d="M31.5298 60.6429C24.5354 60.6107 17.9801 59.0388 12.174 55.0058C5.89648 50.6442 2.15062 44.5947 0.703948 37.1601C-0.548977 30.6919 -0.200225 24.301 2.31854 18.1484C5.62523 10.0889 11.5799 4.75452 19.7949 2.01647C28.0358 -0.728022 36.3607 -0.605615 44.5434 2.26773C52.907 5.19905 58.5129 11.0102 61.3675 19.366C63.841 26.6267 63.9315 33.984 61.4127 41.2318C58.0996 50.7537 51.2278 56.5777 41.6242 59.3416C38.3369 60.2886 34.9592 60.6816 31.5298 60.6365V60.6429ZM11.1149 29.1199C11.1988 30.1636 11.3021 31.858 11.4959 33.5395C11.6251 34.6605 11.8446 35.775 12.103 36.8702C13.3172 42.1273 15.3193 47.03 19.0457 51.0437C24.2447 56.6357 30.6256 58.4654 37.9623 56.3072C43.3163 54.7288 46.7134 50.8311 48.9932 45.9412C52.4097 38.6226 52.9006 31.0076 50.9437 23.2186C49.581 17.7876 47.2301 12.8656 43.1613 8.89703C38.9828 4.81894 33.9775 3.00217 28.1327 3.82036C22.8626 4.5548 18.8197 7.27997 15.8941 11.6544C12.4905 16.7375 11.2117 22.4391 11.1149 29.1264V29.1199Z" fill="#024230"/>
<path d="M158.424 59.638V58.5041C159.528 58.2979 160.613 58.0982 161.698 57.8856C162.125 57.8019 162.551 57.6924 162.971 57.5764C166.988 56.4876 168.66 54.4776 168.899 50.3479C169.022 48.267 169.1 46.1861 169.106 44.1052C169.125 34.4801 169.145 24.8551 169.093 15.23C169.08 13.001 168.88 10.7654 168.583 8.55565C168.267 6.22992 166.872 4.56776 164.65 3.82043C162.661 3.15042 160.587 2.71877 158.45 2.15828V1.16614H187.403V2.28713C185.982 2.57704 184.567 2.84762 183.166 3.15686C182.643 3.27283 182.126 3.45966 181.616 3.6336C178.878 4.55488 177.399 6.50694 177.095 9.31586C176.888 11.255 176.746 13.2136 176.74 15.1592C176.708 25.3254 176.695 35.4852 176.74 45.6514C176.753 47.8289 176.947 50.0129 177.237 52.1712C177.573 54.6644 179.091 56.3394 181.474 57.0996C183.134 57.6279 184.865 57.9372 186.57 58.3366C186.841 58.401 187.119 58.4397 187.409 58.4977V59.638H158.417H158.424Z" fill="#024230"/>
<path d="M149.841 87.7336C149.841 89.6083 149.757 91.4831 149.867 93.3514C149.957 94.8332 150.68 95.5097 152.166 95.864C152.837 96.025 153.528 96.1152 154.245 96.2441V96.8626C154.039 96.8819 153.838 96.9206 153.638 96.9206C150.047 96.9206 146.463 96.9206 142.872 96.9206C142.769 96.9206 142.646 96.9528 142.569 96.9077C142.42 96.8175 142.201 96.6951 142.188 96.5662C142.175 96.4374 142.356 96.199 142.491 96.1668C143.014 96.025 143.55 95.9542 144.08 95.8382C145.107 95.6127 145.694 94.9685 145.817 93.9312C145.895 93.2677 145.972 92.6041 145.972 91.9341C145.985 88.41 145.972 84.886 145.972 81.362C145.972 81.1301 145.966 80.8981 145.927 80.6726C145.682 79.0556 145.275 78.6175 143.673 78.2889C143.344 78.2245 142.988 78.2567 142.685 78.1472C142.478 78.0699 142.336 77.8186 142.168 77.6447C142.362 77.5416 142.562 77.3548 142.756 77.3548C145.623 77.3354 148.485 77.3097 151.352 77.3548C152.818 77.3805 154.297 77.445 155.737 77.6769C157.481 77.9604 158.934 78.7721 159.38 80.6662C159.858 82.702 159.199 84.3706 157.552 85.6398C157.029 86.0392 156.428 86.3485 155.776 86.7479C157.468 89.4408 158.508 92.5203 160.788 94.8461C163.545 97.655 166.904 99.0401 170.876 99.1947C169.933 99.3558 168.99 99.6071 168.04 99.6586C162.68 99.9227 158.469 97.8225 155.485 93.3643C154.769 92.2949 154.058 91.2061 153.535 90.0464C152.812 88.4423 151.707 87.6112 149.847 87.7529L149.841 87.7336ZM149.854 78.3856V86.6384C151.229 86.5804 152.456 86.2583 153.541 85.4981C155.834 83.881 155.808 80.4665 153.483 79.1587C152.385 78.5402 151.178 78.3405 149.854 78.392V78.3856Z" fill="#024230"/>
<path d="M34.843 96.9205C34.6621 96.3471 34.8559 96.1925 35.3015 96.0894C37.8267 95.5031 38.324 94.8653 38.3305 92.2754C38.3305 89.138 38.3305 86.0005 38.3305 82.863C38.3305 82.4765 38.3305 82.0899 38.2853 81.7098C38.1044 79.8093 37.0517 78.6754 35.2046 78.2373C34.5975 78.0956 34.604 78.0762 34.6621 77.3482C36.7676 77.3482 38.8794 77.3354 40.9913 77.3676C41.1915 77.3676 41.4111 77.6188 41.5726 77.7992C45.6737 82.3476 49.7747 86.9024 53.8758 91.4573C53.9081 91.4959 53.9598 91.5088 54.1018 91.5925C54.1277 91.3413 54.1729 91.1351 54.1664 90.929C54.1148 88.0234 54.0954 85.1179 53.992 82.2188C53.8887 79.3068 53.2235 78.611 50.3043 78.2244C49.8006 78.1536 49.5099 78.0183 49.6972 77.4062H58.345C58.5194 77.8701 58.4225 78.1471 57.8542 78.218C56.6787 78.3726 56.0716 79.1457 55.9554 80.2409C55.8133 81.5938 55.7487 82.9596 55.7423 84.319C55.7164 89.2088 55.7358 94.0922 55.7358 98.9821C55.7358 99.2591 55.7358 99.5361 55.7358 100.019C50.4335 94.0214 45.2732 88.178 40.1065 82.3283C40.0226 82.3605 39.9451 82.3863 39.8611 82.4185C39.8611 83.6619 39.8288 84.9053 39.8676 86.1422C39.9322 88.1974 40.029 90.2525 40.1259 92.3012C40.2357 94.73 40.733 95.3356 43.0774 95.9348C43.3486 96.0056 43.6457 96.025 43.8976 96.1538C44.0591 96.2376 44.1947 96.4502 44.2399 96.6241C44.2528 96.695 43.9816 96.9205 43.833 96.9269C40.8428 96.9462 37.8526 96.9398 34.8494 96.9398L34.843 96.9205Z" fill="#024230"/>
<path d="M115.405 96.9205C115.185 96.418 115.276 96.1668 115.773 96.0895C116.257 96.0186 116.735 95.922 117.213 95.8124C118.169 95.5934 118.744 94.9878 118.873 94.015C118.957 93.3772 119.034 92.7394 119.034 92.1016C119.047 88.7837 119.041 85.4658 119.041 82.148C119.041 82.0191 119.041 81.8903 119.041 81.7614C118.983 79.1909 118.505 78.6175 115.973 78.2181C115.431 78.1343 115.14 77.9926 115.373 77.3612H132.345C132.171 79.0169 131.996 80.634 131.822 82.309C131.551 82.3219 131.312 82.3412 131.092 82.3541C131.034 82.2704 130.989 82.2317 130.982 82.1866C130.543 79.6483 129.839 78.8687 127.327 78.5982C125.88 78.4371 124.408 78.5724 122.897 78.5724V85.9039C124.621 85.9039 126.345 86.1487 128.018 85.5882C128.948 85.279 129.413 84.4801 129.71 83.604C129.859 83.1659 130.059 82.9211 130.498 83.1594V90.2719C129.936 90.4974 129.71 90.3428 129.562 89.8403C129.071 88.2232 128.334 87.6627 126.649 87.6241C125.415 87.5983 124.182 87.6241 123.013 87.6241C123.013 89.7501 122.955 91.8245 123.039 93.8861C123.077 94.7881 123.762 95.355 124.653 95.5419C128.192 96.2827 131.441 95.4645 132.7 91.322C132.778 91.0772 132.81 90.8002 132.959 90.6069C133.068 90.4652 133.333 90.3621 133.514 90.375C133.637 90.3879 133.85 90.6585 133.831 90.7809C133.54 92.7072 133.243 94.627 132.875 96.534C132.842 96.7015 132.365 96.8948 132.093 96.8948C129.387 96.9205 126.675 96.9141 123.962 96.9141C121.405 96.9141 118.854 96.9141 116.296 96.9141C115.993 96.9141 115.689 96.9141 115.411 96.9141L115.405 96.9205Z" fill="#024230"/>
<path d="M3.98492 77.3612H15.229C15.3581 78.0763 15.3646 78.0763 14.751 78.1729C14.596 78.1987 14.441 78.1987 14.286 78.218C12.426 78.5144 11.5929 79.2231 11.5412 81.0656C11.4508 84.2997 11.4766 87.5467 11.6058 90.7808C11.7221 93.783 13.8792 95.1231 16.3527 95.5096C17.3796 95.6707 18.4711 95.6514 19.4979 95.4838C21.5194 95.1553 22.8821 93.6477 23.1082 91.4122C23.289 89.6534 23.2632 87.8753 23.2373 86.1036C23.218 84.3062 23.1146 82.5087 22.9984 80.7177C22.9209 79.4743 22.1782 78.7721 20.9834 78.5144C20.5055 78.4113 20.0275 78.2825 19.5432 78.2309C19.0007 78.1729 18.8004 77.9474 18.9942 77.3805C22.3267 77.3805 25.6722 77.3805 29.0176 77.3805C29.1123 77.8229 28.9702 78.057 28.5913 78.0827C28.3072 78.1021 28.023 78.1021 27.7453 78.16C25.853 78.553 25.233 79.178 25.0909 81.1043C24.8907 83.7135 24.7938 86.3355 24.6324 88.9512C24.5742 89.8725 24.5226 90.8002 24.3869 91.7086C23.9671 94.5626 22.1782 96.2183 19.5109 96.9785C17.1277 97.655 14.7187 97.6099 12.3485 96.8883C9.12579 95.9026 7.77599 94.1631 7.69849 90.8066C7.63391 87.8237 7.67266 84.8409 7.64682 81.858C7.62745 79.1715 7.1689 78.6303 4.52743 78.218C3.99138 78.1343 3.7718 77.9603 3.97201 77.3547L3.98492 77.3612Z" fill="#024230"/>
<path d="M86.4067 77.374H96.4689C96.6626 77.9216 96.5012 78.1729 95.9522 78.2566C95.5259 78.3211 95.1061 78.4692 94.6928 78.6239C93.8145 78.9589 93.5691 79.4098 93.8209 80.3053C94.0147 80.9947 94.2536 81.6776 94.5313 82.3412C95.8811 85.5624 97.2503 88.7772 98.613 91.992C98.6905 92.1788 98.7874 92.3592 98.8908 92.5718C98.9683 92.5009 99.0458 92.4623 99.0651 92.4108C100.415 88.8867 101.862 85.3949 103.069 81.8258C103.922 79.3068 103.353 78.5981 100.725 78.218C100.208 78.1407 99.8595 78.0376 100.111 77.3805H108.979L109.16 77.5415C108.979 77.7606 108.83 78.1214 108.617 78.1664C107.203 78.4757 106.279 79.3841 105.691 80.6017C104.697 82.6569 103.767 84.7507 102.888 86.8573C101.177 90.9612 99.5237 95.0844 97.8445 99.1947C97.7476 99.4266 97.6378 99.6521 97.4764 99.9935C97.3084 99.6263 97.1728 99.3622 97.063 99.0916C94.7897 93.4995 92.5228 87.9075 90.2494 82.3154C90.0169 81.742 89.7392 81.1944 89.5067 80.621C89.0094 79.4356 88.228 78.5788 86.9169 78.3146C86.4067 78.2115 86.2259 77.9281 86.4067 77.374Z" fill="#024230"/>
<path d="M170.262 90.4071C170.85 90.0206 171.121 90.1366 171.328 90.6971C171.922 92.3141 172.8 93.7637 174.15 94.8653C175.384 95.8639 176.779 96.4115 178.387 96.0701C180.828 95.5482 181.797 92.9519 180.24 90.9998C179.711 90.3363 178.968 89.7951 178.238 89.3441C177.037 88.6032 175.739 88.017 174.512 87.3019C173.11 86.4772 171.877 85.4786 171.528 83.7585C171.024 81.2717 172.368 78.8171 174.945 77.6639C177.657 76.4528 180.357 76.6396 183.024 77.8637C183.386 78.0312 183.534 78.2373 183.502 78.6947C183.379 80.1507 183.347 81.6132 183.276 83.1143C182.998 83.1271 182.772 83.14 182.546 83.1594C182.494 83.0756 182.436 83.0241 182.417 82.9532C182.139 82.1028 181.939 81.2137 181.577 80.3955C180.957 78.9975 179.898 78.1665 178.271 78.1665C177.108 78.1665 176.197 78.5852 175.629 79.5967C175.041 80.6339 175.003 81.7485 175.674 82.7406C176.081 83.3397 176.637 83.9003 177.244 84.2997C178.335 85.0212 179.53 85.5882 180.66 86.2582C181.39 86.6898 182.133 87.1279 182.785 87.6627C185.691 90.0464 185.414 94.3242 182.139 96.1667C178.632 98.1445 175.067 97.816 171.599 95.9412C171.425 95.8446 171.244 95.6127 171.205 95.4194C170.876 93.7637 170.579 92.0951 170.269 90.4265L170.262 90.4071Z" fill="#024230"/>
<path d="M253.078 96.2053C253.246 96.6756 253.169 96.9269 252.639 96.9205C248.919 96.914 245.205 96.9205 241.485 96.9011C241.324 96.9011 241.162 96.6885 241.001 96.5726C241.137 96.4308 241.24 96.1989 241.401 96.1538C241.873 96.0249 242.364 95.9734 242.842 95.8768C244.443 95.5482 244.979 95.0006 245.102 93.4157C245.199 92.1852 245.218 90.9483 245.231 89.7178C245.231 89.4021 245.115 89.0606 244.973 88.7707C243.778 86.3226 242.545 83.8938 241.369 81.4328C240.581 79.777 239.419 78.6238 237.578 78.2115C237.055 78.0956 237.061 78.0633 237.132 77.3676H247.014C247.175 77.8765 247.085 78.1922 246.504 78.2308C246.303 78.2437 246.103 78.321 245.903 78.379C244.986 78.6496 244.682 79.0941 245.005 79.9896C245.412 81.1235 245.929 82.2187 246.426 83.314C247.001 84.5767 247.614 85.8136 248.209 87.0635C248.299 87.0313 248.37 87.0248 248.383 86.9926C249.352 84.9503 250.385 82.9403 251.25 80.8594C251.87 79.3712 251.483 78.7849 249.933 78.2888C249.494 78.1471 249.296 77.84 249.339 77.3676H257.541C257.709 77.8379 257.657 78.1213 257.076 78.2308C254.97 78.6303 253.55 79.8672 252.6 81.7742C251.535 83.9131 250.353 85.994 249.229 88.1007C249.145 88.2618 249.009 88.4228 249.003 88.5903C248.958 90.536 248.706 92.5074 249.319 94.4079C249.675 95.4967 250.714 95.7737 251.715 95.9927C252.142 96.0894 252.581 96.128 253.072 96.1989L253.078 96.2053Z" fill="#024230"/>
<path d="M220.127 78.3662C218.765 78.553 217.473 78.6303 216.24 78.9267C214.683 79.3004 213.818 80.4987 213.243 81.916C213.146 82.1544 213.114 82.425 212.972 82.6311C212.868 82.7793 212.61 82.9468 212.474 82.9081C212.332 82.8695 212.145 82.586 212.158 82.4314C212.339 80.7499 212.552 79.0749 212.765 77.3547H231.417C231.636 79.1844 231.856 80.9818 232.075 82.7729C231.636 83.0112 231.372 83.1014 231.158 82.528C230.054 79.5709 228.646 78.5917 225.475 78.5144C225.016 78.5015 224.551 78.5144 224.009 78.5144C223.996 78.8236 223.964 79.0942 223.97 79.3648C223.977 83.6877 223.99 88.0041 224.003 92.327C224.003 92.4559 224.003 92.5847 224.009 92.7136C224.08 94.9878 224.694 95.6707 226.941 95.9928C227.374 96.0572 227.807 96.1216 228.284 96.1925V96.8819H215.923C215.781 96.4438 215.794 96.1732 216.362 96.1088C217.027 96.0314 217.68 95.8833 218.332 95.748C219.346 95.5289 219.856 94.846 220.011 93.8668C220.095 93.3063 220.166 92.7458 220.166 92.1789C220.179 87.856 220.173 83.5331 220.166 79.2166C220.166 79.0169 220.14 78.8172 220.115 78.3662H220.127Z" fill="#024230"/>
<path d="M192.996 77.3676H204.265C204.44 77.8765 204.343 78.1278 203.768 78.218C201.049 78.6561 200.655 79.0297 200.61 81.8064C200.545 85.6075 200.584 89.415 200.642 93.2225C200.668 95.1166 201.314 95.6835 203.426 96.0314C203.839 96.1023 204.53 95.9605 204.298 96.8625H193.009C192.879 96.4502 192.892 96.1667 193.454 96.1087C193.887 96.07 194.313 95.9605 194.739 95.8574C195.966 95.574 196.49 95.007 196.632 93.7443C196.709 93.055 196.78 92.3592 196.774 91.6698C196.748 88.0749 196.735 84.4736 196.645 80.8787C196.599 79.223 196.005 78.6496 194.391 78.3533C194.113 78.3017 193.835 78.218 193.551 78.2115C192.983 78.1922 192.828 77.9152 192.996 77.3676Z" fill="#024230"/>
<path d="M67.8324 77.3676H79.1087C79.3024 77.883 79.1862 78.1213 78.6179 78.2115C75.8924 78.6496 75.4855 79.0813 75.4533 81.7935C75.4145 85.4722 75.4274 89.1444 75.4533 92.823C75.4726 95.0521 76.0474 95.6577 78.2562 96.0314C78.6695 96.1023 79.4122 95.967 79.1152 96.8818H67.8453C67.6967 96.4308 67.7355 96.1667 68.2586 96.1151C68.7172 96.07 69.1693 95.9605 69.6213 95.851C70.8097 95.5675 71.3457 95.0006 71.4684 93.7894C71.5653 92.7908 71.6299 91.7922 71.617 90.7937C71.5976 87.4565 71.5782 84.1128 71.4684 80.7756C71.4168 79.1908 70.8355 78.6625 69.279 78.3661C68.9755 78.3082 68.672 78.2244 68.3684 78.2115C67.8001 78.1858 67.658 77.9087 67.8324 77.374V77.3676Z" fill="#024230"/>
</g>
<defs>
<clipPath id="clip0_216_902">
<rect width="261.538" height="100" fill="white"/>
</clipPath>
</defs>
</svg>
