<svg width="137" height="200" viewBox="0 0 137 200" fill="none" xmlns="http://www.w3.org/2000/svg">
<path d="M64.7042 185.805C62.6155 184.853 60.3906 184.082 58.4835 182.857C56.2132 181.361 54.8056 179.048 54.0337 176.417C53.8066 175.646 53.5796 175.193 52.6261 175.102C45.2702 174.603 40.9112 169.297 40.9112 161.678C40.9112 155.873 40.9112 150.023 40.9112 144.218C40.9566 129.977 36.2344 117.551 26.7444 106.893C16.755 95.6916 11.6241 82.585 11.8511 67.5737C12.2143 39.7732 32.8743 16.3719 60.6176 12.6531C77.1001 10.4308 92.2659 14.4218 105.479 24.6258C115.332 32.2449 120.736 42.8118 123.46 54.7846C127.774 73.9682 123.733 91.2472 110.746 106.168C100.802 117.596 95.8076 130.794 95.9892 145.896C96.0346 151.111 96.1709 156.327 95.9438 161.497C95.8076 163.991 95.3081 166.576 94.3092 168.844C92.4475 173.016 88.7696 174.739 84.3652 175.193C83.8657 175.238 83.1392 175.737 83.003 176.19C81.3229 181.224 77.9175 184.354 72.6957 185.488C72.5595 185.533 72.4233 185.669 72.2871 185.76C69.6989 185.805 67.2015 185.805 64.7042 185.805ZM71.2881 115.556C71.2881 125.397 71.2881 135.283 71.2881 145.215C77.8721 145.215 84.3198 145.215 90.8583 145.215C90.8583 138.594 91.8118 132.245 93.7189 126.077C96.5341 116.871 101.62 109.025 107.749 101.678C118.919 88.2993 122.143 72.8345 118.329 56.0091C114.742 40.2721 106.251 28.1633 90.8129 21.9955C69.6535 13.5147 49.9017 15.8277 33.0105 31.746C20.2967 43.7188 15.4382 58.8662 17.7993 76.1451C19.2523 86.9841 24.2471 96.0998 31.4667 104.218C39.549 113.288 44.2713 123.991 45.7243 136.054C46.0875 139.138 46.1784 142.222 46.4508 145.351C52.8531 145.351 59.2554 145.351 65.7031 145.351C65.7031 135.42 65.7031 125.533 65.7031 115.692C62.6609 115.374 61.5257 114.694 61.7982 112.698C62.2976 109.297 60.8446 108.073 57.757 106.803C54.8056 105.578 52.9893 105.442 50.9914 108.073C49.8109 109.615 48.2671 109.524 46.8595 108.163C45.0432 106.44 43.3178 104.671 41.5923 102.902C40.2301 101.497 40.0939 99.8186 41.6377 98.7755C44.4529 96.8707 44.1351 95.0567 42.9545 92.1088C41.7285 88.9796 40.4571 87.5737 37.0517 88.0726C35.2808 88.3447 34.2365 87.1202 34.1911 85.2608C34.1457 82.6757 34.1457 80.0453 34.1911 77.4603C34.2365 75.6463 35.2354 74.6939 37.0971 74.6032C38.1868 74.5578 39.2766 74.6485 40.3209 74.5578C40.775 74.5125 41.4107 74.1497 41.5469 73.7868C42.5004 71.5193 43.3632 69.2063 44.4529 66.3945C43.681 65.7143 42.5913 64.898 41.6377 63.9456C40.2301 62.5397 40.2755 61.1791 41.5923 59.7732C43.2723 58.0045 44.9978 56.2812 46.7232 54.6032C48.1762 53.1973 49.5384 53.1973 51.0368 54.6032C51.9904 55.5555 52.8531 56.5986 53.7158 57.551C55.2597 56.8254 56.3948 55.9184 57.6662 55.6916C61.0717 55.0567 62.2522 53.3333 61.7528 49.8866C61.4803 48.1179 62.7517 47.0748 64.568 47.0295C67.1561 46.9841 69.7897 46.9841 72.3779 47.0295C74.1033 47.0748 75.4655 48.1179 75.1931 49.7052C74.6028 53.288 76.1012 55.0113 79.5067 55.6916C80.7327 55.9184 81.9586 57.2336 83.003 57.0521C84.0473 56.8707 84.9101 55.4195 85.8636 54.5125C87.4074 53.0612 88.6788 53.0159 90.1772 54.4218C91.9481 56.0998 93.6735 57.8231 95.3535 59.5465C96.8519 61.0884 96.8065 62.449 95.2627 63.9456C94.3546 64.8526 93.3102 65.6689 92.5837 66.3492C93.8097 69.297 94.8541 71.8367 95.9438 74.4218C97.2152 74.4218 98.532 74.4218 99.8488 74.4218C101.937 74.4671 102.936 75.3741 102.982 77.3696C103.027 79.9093 103.027 82.449 102.982 84.9887C102.936 86.9841 101.937 87.9365 99.8488 87.9818C98.4866 88.0272 97.1244 87.9818 95.9438 87.9818C94.8087 90.6122 93.7643 93.1066 92.4929 96.0998C93.4011 96.8707 94.5816 97.7778 95.626 98.8209C96.8065 100.045 96.8065 101.406 95.6714 102.63C93.8551 104.58 91.9935 106.485 90.041 108.299C88.815 109.433 87.4528 109.388 86.2268 108.254C85.4095 107.483 84.683 106.576 83.7749 105.896C83.4116 105.624 82.6851 105.488 82.2311 105.669C80.2332 106.395 78.2353 107.211 76.2828 108.118C75.8742 108.299 75.5109 108.934 75.3747 109.433C75.2385 109.932 75.3293 110.567 75.3293 111.111C75.2839 114.694 74.8298 115.193 71.2881 115.556ZM90.495 150.612C75.7379 150.612 61.0263 150.612 46.36 150.612C46.36 154.966 46.2238 159.229 46.4054 163.447C46.587 167.347 49.1752 169.841 52.9893 169.841C63.342 169.932 73.7401 169.932 84.0927 169.841C87.5436 169.796 90.2226 167.619 90.4496 164.218C90.7221 159.683 90.495 155.193 90.495 150.612ZM69.8805 52.2902C68.8816 52.2902 68.0189 52.2902 67.0653 52.2902C67.0653 53.5601 67.0653 54.7392 67.0653 55.9184C67.0653 57.6417 66.248 58.7301 64.568 59.0476C61.2079 59.6372 58.2111 60.9524 55.3959 62.8571C54.1245 63.7188 52.8077 63.6281 51.7179 62.4943C50.8552 61.6326 50.0833 60.6349 49.266 59.7279C48.4033 60.5896 47.7676 61.1791 46.8595 62.0862C47.7676 62.9025 48.7211 63.6281 49.5838 64.4444C50.8098 65.5782 50.9006 66.9388 49.9925 68.254C48.1308 71.0204 46.8595 73.9682 46.2692 77.2789C45.9059 79.1383 44.9978 79.8186 43.0907 79.8639C41.9102 79.8639 40.7296 79.8639 39.5036 79.8639C39.5036 80.8617 39.5036 81.678 39.5036 82.6757C40.775 82.6757 41.9556 82.6757 43.1361 82.6757C44.8616 82.6757 45.9513 83.4921 46.2692 85.1701C46.8595 88.4807 48.1762 91.5193 50.0379 94.3311C50.8552 95.5555 50.7644 96.8254 49.6747 97.8685C48.8119 98.7302 47.813 99.5011 46.8595 100.317C47.7676 101.224 48.4033 101.859 49.2206 102.676C50.0379 101.769 50.8098 100.862 51.6271 100C52.7623 98.8209 54.0791 98.6395 55.4413 99.5918C58.2565 101.497 61.2533 102.812 64.6134 103.401C66.2934 103.719 67.1107 104.853 67.1107 106.531C67.1107 107.71 67.1107 108.889 67.1107 110.159C68.1097 110.159 68.927 110.159 69.9259 110.159C69.9259 108.934 69.9259 107.846 69.9259 106.712C69.9713 104.671 70.6524 103.719 72.5595 103.356C75.7834 102.766 78.6894 101.497 81.4138 99.6825C82.9576 98.6395 84.1381 98.7755 85.5003 100.136C86.3176 100.952 87.0442 101.859 87.6798 102.585C88.6334 101.769 89.3145 101.27 90.268 100.454C89.1783 99.5465 88.2701 98.7755 87.4074 98.0045C86.1814 96.8707 86.0452 95.5102 86.9533 94.195C88.8604 91.3832 90.1318 88.3447 90.7675 85.034C91.0853 83.3107 92.1751 82.5397 93.9005 82.585C95.1265 82.585 96.3525 82.585 97.533 82.585C97.533 81.5419 97.533 80.771 97.533 79.8639C96.2617 79.8639 95.0811 79.8639 93.9005 79.8639C92.1751 79.8639 91.1307 79.093 90.8129 77.3696C90.1772 74.059 88.9058 71.0204 86.9987 68.2086C86.0906 66.8481 86.2268 65.5329 87.4528 64.3991C88.3155 63.5828 89.2691 62.8571 90.2226 62.0408C89.3145 61.0884 88.6788 60.4535 87.9523 59.6825C87.0442 60.6803 86.2268 61.5419 85.4095 62.3583C84.229 63.5374 82.9122 63.6735 81.55 62.7664C78.7348 60.8617 75.6925 59.5918 72.3779 59.0023C70.7432 58.7302 69.9259 57.6417 69.9259 56.0091C69.8351 54.8299 69.8805 53.6054 69.8805 52.2902ZM59.4824 175.147C60.7538 179.274 64.2047 180.907 70.4254 180.499C73.9217 180.272 76.8277 178.05 77.3726 175.147C71.4697 175.147 65.5669 175.147 59.4824 175.147Z" fill="#00694E"/>
<path d="M68.6091 63.7641C78.2807 63.8549 86.0906 71.746 86.0452 81.3605C85.9998 91.1111 77.9628 99.0022 68.155 98.8662C58.5289 98.7301 50.7644 90.7483 50.8098 81.1791C50.9006 71.4739 58.8921 63.6734 68.6091 63.7641ZM80.7326 81.4059C80.778 74.5578 75.3746 69.0703 68.5637 69.0249C61.7527 68.9796 56.2131 74.4217 56.1677 81.1791C56.1223 88.0272 61.4803 93.4694 68.3367 93.5601C75.193 93.6054 80.6872 88.2086 80.7326 81.4059Z" fill="#00694E"/>
</svg>
