<svg width="180" height="130" viewBox="0 0 180 130" fill="none" xmlns="http://www.w3.org/2000/svg">
<g clip-path="url(#clip0_164_330)">
<path d="M167.515 59.5394C164.039 59.5394 160.563 59.5236 157.087 59.5473C156.051 59.5553 155.413 59.1751 154.887 58.2564C152.455 54.067 150.064 49.8617 147.018 46.0603C144.252 42.5994 141.406 39.2098 138.233 36.1133C131.6 29.6509 124.201 24.2181 115.982 19.8781C106.941 15.1026 97.3025 12.1645 87.2653 10.3984C84.0365 9.82818 80.7758 9.57475 77.5071 9.30548C72.8034 8.92534 68.1316 9.40844 63.4598 9.76482C53.4305 10.533 43.8557 13.1148 34.6795 17.138C28.2618 19.9573 22.2028 23.4499 16.6142 27.7027C16.3909 27.869 16.096 28.3521 15.8488 28.0353C15.6176 27.7502 16.1279 27.5443 16.3511 27.3384C19.5879 24.424 22.8964 21.5808 26.468 19.0624C34.5759 13.3445 43.2419 8.71151 52.7051 5.5912C58.1342 3.80137 63.6352 2.31249 69.2796 1.37798C73.194 0.728572 77.1404 0.285075 81.1106 0.0950052C86.0535 -0.150502 90.9724 0.079166 95.8993 0.514743C103.784 1.21167 111.461 2.79558 118.947 5.29025C126.944 7.95123 134.47 11.6022 141.541 16.1797C145.774 18.9199 149.864 21.8501 153.619 25.1922C159.909 30.7834 165.658 36.8736 170.409 43.8428C173.454 48.3015 176.149 52.9582 178.557 57.7813C179.41 59.4998 179.41 59.5157 177.504 59.5236C174.18 59.5236 170.848 59.5236 167.523 59.5236L167.515 59.5394Z" fill="#00859D"/>
<path d="M26.6834 42.2906C26.1812 42.9083 25.6949 43.4785 25.2325 44.0804C21.7565 48.6104 18.7988 53.4493 16.5665 58.7079C16.2795 59.381 15.9128 59.6266 15.0996 59.587C12.8673 59.484 10.6351 59.5553 8.39483 59.5474C6.03501 59.5474 3.67519 59.5236 1.31537 59.5236C0.677585 59.5236 0.605833 59.2702 0.852977 58.7396C4.04192 51.7307 8.08391 45.2446 13.1942 39.4475C18.2327 33.7374 23.9569 28.8114 30.5181 24.8754C36.9678 21.0107 43.832 18.1438 51.1028 16.2351C55.1368 15.1739 59.2426 14.5008 63.4121 14.1523C67.3106 13.8276 71.2091 13.7959 75.0916 14.081C80.17 14.4532 85.1607 15.4273 90.0876 16.7816C94.584 18.0171 98.8572 19.791 103.059 21.763C103.099 21.7789 103.122 21.8343 103.186 21.9056C102.987 22.1115 102.78 21.9768 102.596 21.9056C100.452 21.0344 98.2354 20.4088 95.9872 19.8702C95.3016 19.7039 95.1102 19.8465 95.1102 20.5355C95.1262 27.2434 95.1102 33.9433 95.1102 40.6512C95.1102 45.2129 95.1341 49.7746 95.0943 54.3363C95.0863 55.7697 95.0943 57.1952 95.1262 58.6208C95.1421 59.2702 94.9189 59.5553 94.2173 59.5394C92.575 59.5078 90.9407 59.5394 89.2984 59.5394C88.238 59.5394 88.2301 59.5394 88.2301 58.4545C88.2301 45.5534 88.2301 32.6445 88.2301 19.7435C88.2301 18.2863 88.2301 18.3101 86.7552 18.215C83.7895 18.0171 80.8237 17.6528 77.8421 17.7795C76.9492 17.8191 76.0563 17.8824 75.1634 17.9141C74.7089 17.9299 74.5495 18.1517 74.5654 18.5714C74.5734 18.8407 74.5654 19.1179 74.5654 19.3871C74.5654 32.3911 74.5654 45.3951 74.5654 58.3911C74.5654 59.1567 74.1721 59.5368 73.3855 59.5315C71.799 59.5315 70.2046 59.5157 68.6181 59.5315C68.0281 59.5315 67.7969 59.3731 67.7969 58.7237C67.8208 45.7198 67.8129 32.7237 67.8129 19.7198C67.8129 18.8249 67.7411 18.7457 66.8641 18.9595C63.0055 19.8861 59.0672 20.4959 55.368 22.0085C54.7222 22.2699 54.4512 22.5946 54.4512 23.3073C54.4751 34.6799 54.4671 46.0524 54.4671 57.4249C54.4671 57.8922 54.4671 58.3594 54.5149 58.8267C54.5628 59.3414 54.3475 59.5474 53.8373 59.5474C51.9478 59.5474 50.0584 59.5474 48.1769 59.5632C47.8261 59.5632 47.6667 59.4523 47.6747 59.1039C47.6747 58.7079 47.6747 58.3119 47.6747 57.9159C47.6747 47.5571 47.6747 37.1904 47.6747 26.8316C47.6747 26.6336 47.6747 26.4356 47.6747 26.2376C47.6826 25.6911 47.4514 25.5803 46.9811 25.8416C43.0108 28.0512 39.1602 30.435 35.6683 33.3573C35.5726 33.4365 35.4929 33.5394 35.3893 33.6028C33.9702 34.371 33.6672 35.551 33.6832 37.1112C33.7629 44.2388 33.7071 51.3743 33.7071 58.502C33.7071 59.484 33.6513 59.5394 32.6468 59.5394C31.0045 59.5394 29.3621 59.484 27.7278 59.5711C26.9146 59.6107 26.795 59.3256 26.803 58.6208C26.8269 53.5126 26.819 48.4045 26.811 43.2964C26.811 42.9875 26.8987 42.6628 26.6675 42.2827L26.6834 42.2906Z" fill="#42BFB3"/>
<path d="M3.75489 88.5964C3.75489 83.615 3.75489 78.6335 3.75489 73.6442C3.75489 72.5751 3.75489 72.5671 2.67862 72.5671C2.03286 72.5671 1.38709 72.5671 0.741333 72.5671C0.342715 72.5671 0.0875995 72.4325 0.0955718 71.9573C0.127461 69.7874 0.143406 67.6174 0.159351 65.4474C0.159351 64.4812 0.159351 64.4971 1.17184 64.4971C8.09982 64.505 15.0278 64.5129 21.9558 64.5129C24.5628 64.5129 27.1617 64.6634 29.7368 65.0911C35.0942 65.9701 39.5269 70.8248 39.9016 76.1943C40.0052 77.6832 39.9574 79.1562 39.6863 80.6055C39.1602 83.4249 37.3425 85.2543 34.9428 86.6402C34.6319 86.8224 34.0897 86.9016 34.0818 87.258C34.0818 87.7015 34.6637 87.7015 34.9986 87.8757C38.2752 89.5388 40.7068 91.8909 41.4084 95.6369C42.2056 99.8739 41.807 103.889 39.0725 107.445C37.1352 109.963 34.4963 111.389 31.4828 112.236C29.5295 112.791 27.5205 112.925 25.5115 112.933C17.6906 112.965 9.86969 112.949 2.0488 112.949C1.77774 112.949 1.50668 112.941 1.22765 112.925C0.414466 112.878 0.00787583 112.434 0.00787583 111.595C0.00787583 109.623 0.0317929 107.651 -0.00806889 105.671C-0.0240136 104.99 0.22313 104.737 0.900781 104.776C1.57046 104.816 2.24014 104.76 2.90982 104.8C3.57152 104.839 3.77083 104.546 3.76286 103.921C3.73894 101.901 3.75489 99.8739 3.75489 97.8544C3.75489 94.7737 3.75489 91.685 3.75489 88.6043V88.5964ZM13.8878 98.1949C13.8878 98.1949 13.9117 98.1949 13.9196 98.1949C13.9196 100.143 13.9276 102.091 13.9196 104.04C13.9196 104.57 14.095 104.792 14.6531 104.792C17.8341 104.776 21.0071 104.8 24.1881 104.776C26.0297 104.76 27.6879 104.174 29.1708 103.081C31.7219 101.204 32.3039 97.5138 30.4384 94.9637C29.2266 93.3085 27.5125 92.4374 25.5513 92.1206C21.8282 91.5266 18.0733 91.9226 14.3262 91.8197C13.9675 91.8117 13.8878 92.0097 13.8878 92.3423C13.9037 94.2906 13.8878 96.2388 13.8878 98.187V98.1949ZM13.9117 78.2772H13.9276C13.9276 79.9324 13.9356 81.5796 13.9276 83.2348C13.9276 83.7734 14.0711 84.0585 14.685 84.0505C17.5869 84.0347 20.4889 84.0901 23.3908 84.0268C25.4557 83.9872 27.3531 83.4011 28.7881 81.7855C31.0283 79.2829 30.4942 75.6241 27.6401 73.866C26.1811 72.9631 24.5628 72.6147 22.8886 72.583C20.1859 72.5275 17.4833 72.583 14.7727 72.5513C14.1269 72.5513 13.8957 72.7414 13.9037 73.3987C13.9356 75.0222 13.9117 76.6536 13.9117 78.2772Z" fill="#262A68"/>
<path d="M49.6517 88.6518C49.6517 83.6466 49.6517 78.6335 49.6517 73.6284C49.6517 72.5671 49.6517 72.5671 48.5594 72.5671C47.9137 72.5671 47.2679 72.5671 46.6222 72.5671C46.2156 72.5671 45.9365 72.4087 45.9844 71.9494C46.1358 70.5714 45.9684 69.1934 45.9684 67.8154C45.9684 66.9284 46.0322 66.0414 46.0242 65.1544C46.0163 64.6317 46.1996 64.4733 46.7178 64.4812C51.3338 64.505 55.9578 64.505 60.5738 64.5129C63.4279 64.5129 66.282 64.4892 69.1441 64.5288C71.5517 64.5604 73.9594 64.7109 76.3192 65.2336C81.5969 66.3978 85.7346 71.4663 85.7984 76.8279C85.8223 78.784 85.8382 80.7322 84.9294 82.5458C83.9567 84.4782 82.3941 85.8008 80.5446 86.8382C80.3373 86.957 79.9945 86.9887 79.9785 87.2659C79.9626 87.6064 80.3453 87.6223 80.5685 87.7331C84.0444 89.42 86.6673 91.8434 87.3211 95.8111C88.0306 100.111 87.7037 104.238 84.7301 107.77C82.6333 110.264 79.8749 111.619 76.7657 112.395C74.9719 112.846 73.1303 112.933 71.2966 112.941C63.125 112.973 54.9613 112.941 46.7896 112.973C46.096 112.973 45.8887 112.751 45.9047 112.086C45.9365 109.94 45.9365 107.793 45.9047 105.647C45.8967 105.014 46.088 104.744 46.7497 104.784C47.4194 104.824 48.0891 104.768 48.7588 104.808C49.4444 104.847 49.6676 104.586 49.6596 103.905C49.6357 99.9055 49.6517 95.9141 49.6517 91.9147C49.6517 90.8297 49.6517 89.7447 49.6517 88.6597V88.6518ZM59.7128 98.2979C59.7128 100.199 59.7208 102.091 59.7128 103.992C59.7128 104.546 59.8802 104.8 60.4781 104.792C63.7309 104.776 66.9756 104.816 70.2283 104.768C72.1497 104.744 73.8637 104.063 75.3466 102.836C77.531 101.03 78.0652 97.7118 76.5345 95.3201C75.0835 93.063 72.8433 92.1919 70.3001 91.9622C67.0314 91.6692 63.7548 91.8988 60.4781 91.8117C59.8802 91.7959 59.7048 92.0335 59.7128 92.5958C59.7367 94.4965 59.7208 96.3893 59.7208 98.29L59.7128 98.2979ZM59.7128 78.2534H59.7208C59.7208 79.9086 59.7208 81.5559 59.7208 83.2111C59.7208 83.7813 59.9121 84.0664 60.5499 84.0585C63.4279 84.0347 66.3139 84.0664 69.1919 84.0347C70.4914 84.0189 71.759 83.7654 72.923 83.1477C75.0277 82.0231 76.08 80.2491 76.0163 77.897C75.9605 75.6954 74.6052 74.349 72.7157 73.4462C71.488 72.8602 70.1645 72.6067 68.8172 72.583C66.0588 72.5434 63.3083 72.583 60.5499 72.5513C59.8722 72.5513 59.6968 72.8206 59.7128 73.4304C59.7367 75.0301 59.7208 76.6378 59.7208 78.2376L59.7128 78.2534Z" fill="#262A68"/>
<path d="M170.513 69.7716C170.513 68.3223 170.553 66.873 170.497 65.4317C170.465 64.6793 170.688 64.4734 171.454 64.4892C173.686 64.5526 175.926 64.5368 178.159 64.513C178.82 64.5051 179.091 64.6793 179.083 65.3841C179.059 70.4448 179.059 75.4975 179.083 80.5581C179.083 81.2471 178.828 81.453 178.159 81.4451C175.902 81.4134 173.638 81.4055 171.382 81.4451C170.545 81.4609 170.114 81.1758 169.788 80.368C167.962 75.9093 164.829 72.9394 159.926 72.0762C154.592 71.1417 149.681 73.7789 147.457 78.6891C146.229 81.3976 145.751 84.2565 145.576 87.163C145.4 90.1012 145.552 93.0393 146.421 95.8825C147.369 98.9949 148.884 101.735 151.627 103.683C155.7 106.582 162.118 106.186 165.801 102.804C167.499 101.244 168.775 99.4146 169.509 97.2526C169.804 96.3893 170.266 96.1517 171.143 96.1676C173.845 96.2151 176.556 96.1834 179.267 96.1676C180.064 96.1676 180.112 96.2309 179.897 97.0387C179.155 99.8423 177.768 102.337 176.285 104.8C173.901 108.76 170.449 111.381 166.072 112.862C161.313 114.478 156.474 114.636 151.611 113.559C146.253 112.379 142.235 109.227 139.182 104.768C136.957 101.513 135.53 97.9416 134.98 94.0372C133.968 86.8383 134.916 79.9562 138.568 73.5809C141.821 67.8947 146.859 64.6001 153.293 63.5626C157.765 62.842 162.166 63.3013 166.16 65.7326C167.715 66.675 168.847 68.061 170.003 69.4152C170.114 69.5419 170.226 69.6686 170.338 69.8033C170.401 69.7874 170.457 69.7795 170.521 69.7637L170.513 69.7716Z" fill="#00859D"/>
<path d="M112.33 112.949C106.208 112.949 101.121 112.949 96.0269 112.949C94.0816 112.949 94.0816 112.941 94.0816 111.048C94.0816 109.393 94.1055 107.738 94.0737 106.091C94.0577 105.346 94.3049 104.792 94.839 104.261C101.097 98.1236 107.34 91.9781 113.566 85.8087C114.722 84.6604 115.782 83.4011 116.659 82.0231C117.999 79.9165 118.27 77.6832 117.066 75.4261C115.87 73.177 113.829 72.2187 111.374 72.1157C107.555 71.9653 104.996 73.8818 103.975 77.5486C103.696 78.5464 103.473 79.5601 103.473 80.6055C103.473 81.2945 103.202 81.6113 102.445 81.5955C99.734 81.5559 97.0314 81.5717 94.3208 81.5876C93.8026 81.5876 93.4678 81.4925 93.4757 80.8669C93.4917 76.028 94.9028 71.7198 98.4585 68.2826C101.576 65.2732 105.363 63.7368 109.699 63.4755C113.351 63.2537 116.835 63.8794 120.079 65.5504C123.842 67.4907 126.665 70.2784 127.629 74.5708C128.658 79.1642 127.422 83.1398 124.385 86.664C121.889 89.5547 119.035 92.081 116.245 94.6786C114.156 96.611 112.027 98.4959 109.939 100.436C108.575 101.703 107.212 102.955 105.777 104.135C105.626 104.261 105.474 104.396 105.339 104.539C105.227 104.657 105.036 104.768 105.147 104.966C105.227 105.117 105.41 105.093 105.554 105.085C106.096 105.053 106.646 104.982 107.188 104.982C110.345 104.974 113.494 104.982 116.651 104.982C117.273 104.982 117.879 105.117 118.509 105.069C119.171 105.022 119.49 104.776 119.434 104.055C119.37 103.248 119.434 102.424 119.418 101.616C119.402 101.054 119.641 100.808 120.215 100.808C122.575 100.824 124.935 100.824 127.294 100.808C127.868 100.808 128.1 101.054 128.092 101.608C128.092 105.132 128.092 108.665 128.092 112.189C128.092 112.664 127.94 112.878 127.398 112.894C122.033 113.028 116.667 112.894 112.33 112.949Z" fill="#43C0B2"/>
<path d="M31.4591 121.304C31.4591 120.362 31.4591 119.625 31.4591 118.897C31.4591 118.525 31.188 118.469 30.917 118.414C30.5423 118.334 30.3509 118.113 30.4147 117.733C30.4785 117.368 30.7815 117.392 31.0525 117.376C32.6868 117.289 32.6948 117.289 32.7028 118.936C32.7187 121.178 32.7028 123.427 32.7108 125.668C32.7108 126.61 33.5239 127.062 34.4168 126.793C35.23 126.547 35.3974 126.119 35.3576 125.351C35.2938 124.219 35.3257 123.086 35.3416 121.946C35.3416 121.471 35.2699 121.13 34.7039 121.059C34.4487 121.027 34.1059 120.956 34.1378 120.592C34.1697 120.283 34.4567 120.164 34.7278 120.093C35.1902 119.974 35.6685 119.998 36.1309 120.037C36.6252 120.085 36.5853 120.497 36.5853 120.829C36.5933 122.453 36.6013 124.084 36.5853 125.716C36.5853 126.23 36.5933 126.658 37.2869 126.666C37.5819 126.666 37.7094 126.903 37.7174 127.181C37.7254 127.49 37.5261 127.632 37.247 127.632C36.2585 127.616 35.2619 127.806 34.2973 127.474C34.0182 127.379 33.7711 127.394 33.516 127.513C32.9978 127.743 32.4397 127.648 31.8976 127.64C31.6026 127.64 31.4352 127.466 31.4432 127.165C31.4591 126.405 31.1801 126.745 30.8851 126.999C29.6653 128.044 28.1665 127.957 27.1142 126.777C25.6871 125.193 25.719 122.429 27.1859 120.948C28.3579 119.76 29.7052 119.728 30.9329 120.845C31.0366 120.94 31.1482 121.035 31.4511 121.304H31.4591ZM31.4591 123.839C31.5069 123.15 31.3555 122.445 30.8373 121.851C29.8088 120.687 28.3579 120.908 27.752 122.318C27.3135 123.34 27.2896 124.385 27.6961 125.415C28.2622 126.856 29.6813 127.117 30.7894 126.04C31.3953 125.446 31.475 124.702 31.4591 123.847V123.839Z" fill="#262A68"/>
<path d="M148.302 121.122C148.916 120.568 149.41 119.95 150.287 120.006C150.733 120.037 151.188 120.037 151.22 120.607C151.251 121.193 150.805 121.233 150.351 121.249C148.971 121.304 148.262 121.993 148.206 123.363C148.174 124.147 148.214 124.939 148.182 125.731C148.158 126.254 148.302 126.587 148.876 126.658C149.163 126.698 149.553 126.793 149.529 127.133C149.506 127.505 149.083 127.592 148.78 127.6C147.823 127.616 146.867 127.68 145.894 127.513C145.24 127.402 144.531 127.592 143.853 127.688C143.47 127.735 143.199 127.64 143.136 127.252C143.048 126.721 142.833 126.872 142.554 127.094C141.74 127.759 140.84 127.957 139.843 127.592C138.966 127.268 138.32 126.389 138.32 125.502C138.32 124.631 138.854 123.942 139.803 123.577C140.592 123.268 141.43 123.142 142.267 123.007C143.112 122.864 143.375 122.183 142.841 121.51C142.235 120.742 140.624 120.821 140.106 121.645C140.018 121.787 139.947 121.962 139.827 122.08C139.548 122.358 139.173 122.381 138.862 122.207C138.488 122.001 138.735 121.684 138.846 121.431C139.357 120.306 140.848 119.744 142.386 120.077C143.614 120.346 144.339 121.225 144.363 122.508C144.379 123.617 144.363 124.726 144.371 125.834C144.379 126.563 145.304 126.991 146.006 126.769C146.843 126.508 146.978 126.056 146.883 125.264C146.747 124.14 147.05 123.007 146.883 121.867C146.819 121.439 146.787 121.106 146.245 121.051C146.014 121.027 145.727 120.908 145.751 120.599C145.774 120.33 145.998 120.172 146.245 120.108C146.755 119.974 147.281 119.974 147.791 120.093C148.278 120.204 148.118 120.695 148.31 121.122H148.302ZM143.08 124.789C143.056 124.393 143.199 123.862 142.498 123.965C141.812 124.068 141.119 124.132 140.473 124.417C140.002 124.631 139.572 124.884 139.604 125.486C139.636 126.088 140.002 126.484 140.545 126.698C141.693 127.157 143.056 126.127 143.08 124.789Z" fill="#262A68"/>
<path d="M3.78692 127.632C3.0136 127.632 2.24825 127.64 1.47493 127.632C1.14806 127.632 0.773363 127.569 0.709584 127.189C0.645805 126.777 1.02848 126.65 1.33143 126.595C1.84963 126.507 1.92936 126.207 1.92138 125.747C1.89747 123.704 1.89747 121.661 1.90544 119.617C1.90544 119.206 1.80977 118.968 1.36332 118.897C1.04442 118.849 0.669722 118.715 0.701612 118.327C0.733501 117.899 1.14009 117.828 1.49885 117.82C2.98968 117.812 4.48051 117.756 5.96337 117.843C7.72526 117.938 8.70586 119.071 8.58628 120.679C8.53844 121.328 8.2036 121.787 7.70135 122.152C7.40637 122.366 7.23895 122.516 7.70135 122.754C8.68992 123.276 9.12043 124.147 8.95301 125.217C8.76167 126.412 8.02821 127.204 6.81641 127.521C5.8119 127.783 4.79143 127.592 3.77894 127.64L3.78692 127.632ZM3.34844 124.821C3.34844 125.114 3.36438 125.415 3.34844 125.708C3.3006 126.302 3.5318 126.571 4.15365 126.547C4.82332 126.523 5.493 126.539 6.15471 126.397C7.04761 126.207 7.4542 125.731 7.47015 124.868C7.48609 124.021 7.0795 123.482 6.21051 123.292C5.82784 123.205 5.42125 123.197 5.0306 123.181C3.34844 123.126 3.34844 123.134 3.34844 124.821ZM4.89507 121.954C5.21397 121.954 5.54084 121.985 5.85973 121.954C6.57724 121.875 7.07153 121.391 7.15125 120.734C7.23895 119.998 6.87222 119.507 6.23443 119.214C5.82784 119.023 5.38936 118.952 4.93494 118.936C3.34844 118.889 3.34046 118.881 3.34046 120.449C3.34046 122.183 3.22088 121.993 4.89507 121.962V121.954Z" fill="#262A68"/>
<path d="M61.3872 127.632C60.6458 127.632 59.8964 127.632 59.155 127.632C58.8281 127.632 58.4853 127.608 58.4534 127.157C58.4215 126.753 58.6288 126.555 59.0194 126.539C59.5217 126.523 59.5297 126.175 59.5297 125.811C59.5456 123.688 59.434 121.566 59.5934 119.451C59.6253 119.047 59.4101 118.928 59.0593 118.92C58.6766 118.92 58.4534 118.738 58.4614 118.334C58.4614 117.883 58.7882 117.828 59.1311 117.828C60.6219 117.828 62.1127 117.764 63.6035 117.836C65.493 117.923 66.6889 119.538 66.1228 121.106C65.9793 121.51 65.7401 121.851 65.3814 122.096C65.0386 122.334 65.0944 122.548 65.4133 122.785C66.5613 123.664 66.8961 124.48 66.5772 125.549C66.2185 126.745 65.1741 127.545 63.7789 127.624C62.9897 127.672 62.1924 127.632 61.3952 127.632H61.3872ZM60.9089 124.836C60.9089 125.129 60.9328 125.43 60.9089 125.723C60.8531 126.325 61.1002 126.571 61.7221 126.547C62.3678 126.515 63.0056 126.523 63.6514 126.42C64.6798 126.254 65.1342 125.779 65.1342 124.813C65.1342 123.91 64.5363 123.3 63.5318 123.205C63.2368 123.181 62.9339 123.173 62.6389 123.173C60.6219 123.189 60.9488 122.975 60.9169 124.836H60.9089ZM62.3758 121.97C62.6947 121.97 63.0216 121.977 63.3405 121.97C64.2094 121.93 64.6081 121.629 64.7277 120.932C64.8712 120.101 64.5283 119.419 63.7869 119.134C63.3724 118.976 62.9259 118.913 62.4715 118.92C60.6458 118.952 60.9169 118.699 60.9009 120.496C60.885 122.001 60.9009 122.001 62.3678 121.97H62.3758Z" fill="#262A68"/>
<path d="M16.6383 123.34C16.6383 124.108 16.7021 124.876 16.6224 125.628C16.5427 126.42 17.0131 126.69 17.611 126.872C18.3684 127.101 19.2852 126.404 19.2294 125.62C19.1496 124.393 19.3011 123.157 19.1656 121.93C19.1098 121.463 19.0699 121.114 18.5198 121.035C18.2807 121.003 17.9857 120.916 18.0255 120.591C18.0574 120.322 18.3125 120.203 18.5597 120.132C19.046 119.982 19.5483 119.998 20.0346 120.053C20.5528 120.116 20.481 120.584 20.489 120.932C20.5049 122.508 20.5049 124.092 20.489 125.668C20.489 126.23 20.497 126.713 21.2623 126.721C21.5095 126.721 21.653 126.935 21.645 127.189C21.637 127.458 21.4457 127.569 21.2065 127.608C21.063 127.632 20.9115 127.632 20.7601 127.64C19.2453 127.735 17.7306 127.371 16.2158 127.64C15.7614 127.719 15.3707 127.608 15.3707 126.998C15.3707 126.634 15.1794 126.65 14.9562 126.864C14.8685 126.951 14.7888 127.046 14.6931 127.125C13.8959 127.719 13.0189 128.036 12.0542 127.608C11.1294 127.196 10.8106 126.373 10.7787 125.43C10.7468 124.298 10.7547 123.157 10.7787 122.025C10.7866 121.534 10.7229 121.146 10.1488 121.027C9.93359 120.98 9.68645 120.885 9.70239 120.607C9.71834 120.33 9.95751 120.188 10.1967 120.108C10.683 119.958 11.1853 119.998 11.6716 120.045C12.1021 120.093 12.0383 120.449 12.0383 120.734C12.0463 122.144 12.0383 123.545 12.0383 124.955C12.0383 126.032 12.3094 126.531 12.9551 126.682C13.7763 126.864 14.7011 126.381 15.0917 125.549C15.283 125.145 15.3867 124.71 15.3867 124.258C15.3947 123.443 15.3867 122.627 15.4106 121.819C15.4186 121.423 15.3389 121.146 14.8685 121.106C14.5655 121.082 14.3503 120.908 14.3662 120.576C14.3822 120.243 14.6213 120.093 14.9083 120.069C15.3309 120.029 15.7534 120.029 16.168 120.045C16.6144 120.069 16.6383 120.409 16.6383 120.742C16.6383 121.605 16.6383 122.468 16.6383 123.332V123.34Z" fill="#262A68"/>
<path d="M53.1516 124.504C53.1516 125.367 53.1676 126.23 53.1516 127.094C53.1118 128.567 52.4182 129.493 51.1187 129.834C49.5003 130.261 47.8181 129.739 47.1245 128.598C46.989 128.376 46.7578 128.107 46.973 127.862C47.1883 127.608 47.5391 127.68 47.8101 127.783C48.0094 127.854 48.2008 128.012 48.3283 128.179C48.9342 128.963 49.7474 129.026 50.6164 128.828C51.6369 128.59 52.2189 127.482 51.876 126.507C51.7644 126.183 51.597 126.349 51.4296 126.444C49.2691 127.735 47.0687 126.713 46.7179 124.227C46.5585 123.07 46.7498 121.962 47.5231 121.019C48.4798 119.855 50.1142 119.665 51.31 120.592C51.5731 120.797 51.7325 121.019 51.9398 120.512C52.179 119.926 53.8691 119.863 54.204 120.401C54.4192 120.75 54.1482 120.94 53.8851 120.995C53.1995 121.122 53.1277 121.566 53.1516 122.136C53.1835 122.92 53.1516 123.712 53.1516 124.504ZM51.876 123.593C51.892 123.181 51.876 122.785 51.7246 122.413C51.4216 121.653 50.457 120.964 49.7793 121.027C48.9263 121.106 48.3124 121.7 48.1211 122.682C48.0094 123.268 47.9935 123.87 48.1211 124.448C48.2965 125.24 48.7509 125.842 49.6119 126.024C50.2656 126.167 51.0788 125.771 51.5253 125.137C51.8521 124.662 51.9159 124.132 51.884 123.601L51.876 123.593Z" fill="#262A68"/>
<path d="M91.4508 126.302C91.3232 126.357 91.2515 126.381 91.1877 126.412C89.0352 127.767 86.9065 126.903 86.3883 124.425C86.1571 123.308 86.2687 122.207 86.9305 121.225C87.8154 119.91 89.5773 119.617 90.8449 120.56C91.1319 120.774 91.4428 121.249 91.5783 120.417C91.6501 119.974 92.1205 120.061 92.4553 120.053C92.8938 120.053 93.3881 119.958 93.683 120.394C93.8744 120.671 93.7388 120.995 93.4359 121.035C92.6466 121.13 92.7662 121.669 92.7582 122.183C92.7343 123.957 92.8858 125.739 92.6626 127.505C92.4712 129.042 91.8414 129.636 90.3028 129.929C88.8598 130.206 87.4247 129.675 86.7471 128.622C86.5956 128.384 86.3246 128.091 86.6116 127.838C86.8667 127.608 87.2254 127.687 87.5204 127.854C87.648 127.925 87.7516 128.036 87.8632 128.139C88.7163 128.947 89.7367 129.145 90.6296 128.693C91.395 128.305 91.6182 127.68 91.4508 126.309V126.302ZM91.5544 123.672C91.4827 123.26 91.4508 122.841 91.3392 122.445C91.1399 121.732 90.2151 121.027 89.5135 121.019C88.7003 121.011 88.0944 121.502 87.7835 122.381C87.5124 123.157 87.5284 123.926 87.7596 124.702C88.0625 125.7 89.075 126.294 90.0078 126.04C90.9964 125.771 91.5225 124.947 91.5464 123.68L91.5544 123.672Z" fill="#262A68"/>
<path d="M83.096 126.745C82.7133 126.777 82.4981 127.038 82.235 127.212C80.9754 128.036 79.5084 127.79 78.5996 126.595C77.4276 125.05 77.4516 122.659 78.6554 121.13C79.5961 119.934 81.1109 119.72 82.3625 120.599C82.5858 120.758 82.7931 120.916 83.0561 121.114C83.2873 120.306 83.0003 119.554 83.1199 118.81C83.1678 118.493 82.8249 118.477 82.5858 118.429C82.235 118.358 81.9719 118.176 82.0118 117.78C82.0516 117.384 82.3865 117.384 82.6894 117.36C84.3875 117.242 84.4194 117.273 84.4114 118.936C84.4114 121.178 84.4114 123.427 84.4035 125.668C84.4035 126.151 84.4354 126.555 85.0253 126.658C85.2964 126.705 85.4638 126.903 85.4239 127.196C85.3841 127.489 85.1608 127.608 84.8898 127.624C84.4672 127.64 84.0447 127.64 83.6222 127.624C83.0163 127.608 83.2156 127.062 83.0801 126.737L83.096 126.745ZM83.1757 124.084C83.1279 123.712 83.104 123.245 83.0163 122.785C82.8568 121.97 81.9958 121.178 81.2384 121.114C80.3216 121.043 79.8034 121.431 79.3968 122.484C79.054 123.363 79.046 124.25 79.2932 125.161C79.5084 125.929 79.9071 126.515 80.7442 126.666C81.5972 126.824 82.243 126.412 82.7372 125.787C83.096 125.327 83.1678 124.749 83.1757 124.084Z" fill="#262A68"/>
<path d="M129.088 122.864C129.072 121.344 129.455 120.085 130.34 119.016C131.632 117.447 133.712 117.234 135.299 118.493C135.761 118.857 136.032 119.008 136.104 118.239C136.136 117.915 136.327 117.685 136.702 117.725C137.061 117.764 137.188 117.994 137.22 118.334C137.292 119.071 137.316 119.808 137.22 120.544C137.18 120.861 137.077 121.122 136.742 121.209C136.431 121.288 136.216 121.114 136.048 120.893C135.857 120.639 135.689 120.354 135.506 120.101C134.231 118.35 131.895 118.54 131.002 120.497C130.197 122.271 130.348 124.013 131.392 125.644C132.341 127.133 134.709 126.919 135.705 125.288C135.857 125.034 135.969 124.749 136.16 124.536C136.423 124.235 136.79 124.227 137.117 124.409C137.443 124.591 137.26 124.892 137.164 125.129C136.503 126.824 134.972 127.838 133.186 127.783C131.488 127.727 129.989 126.579 129.447 124.892C129.224 124.187 129.064 123.466 129.104 122.857L129.088 122.864Z" fill="#262A68"/>
<path d="M40.3401 121.075C41.1294 120.52 41.7512 119.95 42.692 119.998C43.8559 120.053 44.6372 120.694 44.8046 121.851C45.0039 123.173 44.9162 124.504 44.9242 125.834C44.9242 126.302 44.972 126.674 45.57 126.697C45.8251 126.705 45.9766 126.872 45.9606 127.141C45.9527 127.41 45.7693 127.561 45.5381 127.584C45.0438 127.624 44.5495 127.648 44.0552 127.616C43.6486 127.584 43.6805 127.236 43.6805 126.935C43.6805 125.731 43.6805 124.52 43.6805 123.316C43.6805 123.023 43.6646 122.722 43.6327 122.429C43.5689 121.867 43.3855 121.352 42.7717 121.17C42.1498 120.98 41.5997 121.17 41.1214 121.581C40.5873 122.057 40.3481 122.659 40.3321 123.355C40.3242 124.021 40.3401 124.686 40.3321 125.351C40.3162 125.961 40.2684 126.547 41.0895 126.705C41.3048 126.745 41.4562 126.975 41.3925 127.228C41.3366 127.474 41.1294 127.6 40.8982 127.608C40.1089 127.624 39.3117 127.624 38.5224 127.608C38.2673 127.608 38.1158 127.434 38.0919 127.181C38.076 126.872 38.2115 126.618 38.5224 126.579C39.0326 126.515 39.0805 126.206 39.0805 125.795C39.0645 124.512 39.0645 123.229 39.0805 121.954C39.0805 121.494 39.0486 121.122 38.4586 121.067C38.2035 121.043 37.9803 120.877 38.0042 120.576C38.0281 120.267 38.2434 120.069 38.5384 120.053C38.9848 120.029 39.4313 120.029 39.8697 120.069C40.4039 120.116 40.2524 120.599 40.356 121.059L40.3401 121.075Z" fill="#262A68"/>
<path d="M98.1878 124.227C97.5181 124.227 96.8484 124.227 96.1788 124.227C95.7562 124.227 95.6127 124.377 95.7164 124.821C96.0034 126.088 96.697 126.713 97.837 126.698C98.3472 126.698 98.7618 126.539 99.0408 126.096C99.0648 126.056 99.0966 126.017 99.1285 125.977C99.4793 125.525 100.061 125.201 100.468 125.533C100.97 125.953 100.396 126.436 100.101 126.769C98.6263 128.44 95.7084 127.988 94.7039 125.921C93.8827 124.227 94.1219 122.579 95.2859 121.138C96.681 119.412 99.1764 119.649 100.293 121.558C100.651 122.168 100.803 122.833 100.914 123.522C100.986 123.973 100.795 124.163 100.348 124.163C99.6308 124.163 98.9133 124.163 98.1958 124.163C98.1958 124.187 98.1958 124.203 98.1958 124.227H98.1878ZM97.5899 123.15C97.7892 123.15 97.9885 123.15 98.1878 123.15C98.3871 123.15 98.5864 123.15 98.7857 123.15C99.4155 123.126 99.567 122.912 99.3518 122.31C99.0648 121.479 98.4828 121.083 97.6058 121.13C96.8963 121.17 95.9396 121.938 95.812 122.579C95.7403 122.944 95.8599 123.158 96.2585 123.158C96.7049 123.158 97.1514 123.158 97.5978 123.158L97.5899 123.15Z" fill="#262A68"/>
<path d="M162.939 124.227C162.293 124.227 161.648 124.227 161.002 124.227C160.651 124.227 160.436 124.33 160.468 124.741C160.563 125.874 161.552 126.753 162.692 126.713C163.17 126.698 163.553 126.539 163.84 126.135C163.968 125.953 164.103 125.763 164.287 125.644C164.613 125.438 165.044 125.335 165.323 125.605C165.626 125.898 165.275 126.191 165.092 126.428C164.215 127.545 163.083 128.012 161.68 127.664C160.284 127.315 159.487 126.373 159.192 125.011C158.818 123.292 159.16 121.748 160.611 120.631C161.672 119.808 162.867 119.76 164.031 120.425C165.259 121.13 165.618 122.318 165.674 123.633C165.69 124.052 165.403 124.187 165.036 124.195C164.342 124.203 163.649 124.195 162.955 124.195C162.955 124.203 162.955 124.211 162.955 124.227H162.939ZM162.317 123.157V123.134C162.764 123.134 163.202 123.134 163.649 123.134C164.151 123.142 164.31 122.944 164.159 122.453C163.896 121.589 163.362 121.13 162.533 121.098C161.616 121.067 160.898 121.581 160.571 122.476C160.388 122.983 160.571 123.165 161.066 123.157C161.488 123.157 161.903 123.157 162.325 123.157H162.317Z" fill="#262A68"/>
<path d="M156.689 124.108C155.669 124.235 154.449 124.219 153.237 124.227C152.934 124.227 152.703 124.298 152.743 124.694C152.87 125.858 153.915 126.745 155.11 126.698C155.597 126.682 155.972 126.515 156.227 126.088C156.298 125.961 156.378 125.818 156.49 125.731C156.84 125.454 157.319 125.32 157.646 125.589C157.981 125.858 157.63 126.222 157.438 126.492C156.187 128.194 153.612 128.226 152.296 126.547C151.132 125.058 151.14 122.722 152.312 121.241C153.795 119.372 156.45 119.617 157.542 121.74C157.709 122.065 157.829 122.421 157.917 122.777C158.22 124.06 158.164 124.116 156.689 124.1V124.108ZM154.712 123.157C155.158 123.15 155.605 123.134 156.051 123.157C156.601 123.181 156.681 122.936 156.522 122.468C156.235 121.621 155.748 121.17 155.031 121.122C154.09 121.059 153.404 121.479 153.022 122.342C152.743 122.975 152.846 123.15 153.524 123.165C153.923 123.173 154.321 123.165 154.72 123.165L154.712 123.157Z" fill="#262A68"/>
<path d="M172.626 126.143C172.674 125.85 172.426 125.28 172.961 125.082C173.495 124.884 173.718 125.43 173.989 125.755C174.523 126.412 175.177 126.785 176.054 126.682C176.747 126.603 177.266 126.143 177.29 125.518C177.313 124.821 176.843 124.591 176.253 124.488C175.743 124.401 175.225 124.322 174.714 124.219C173.782 124.029 172.937 123.68 172.658 122.651C172.45 121.859 172.825 120.924 173.511 120.433C174.268 119.895 175.583 119.8 176.325 120.306C176.747 120.592 177.026 120.726 177.433 120.243C177.744 119.871 178.214 120.108 178.246 120.615C178.262 120.98 178.23 121.352 178.214 121.724C178.206 122.001 178.182 122.294 177.864 122.397C177.553 122.5 177.329 122.31 177.178 122.08C176.859 121.621 176.484 121.257 175.934 121.083C175.591 120.98 175.249 120.932 174.906 121.003C174.356 121.122 173.917 121.399 173.885 122.017C173.853 122.659 174.364 122.833 174.858 122.944C175.464 123.078 176.086 123.11 176.684 123.26C178.143 123.633 178.788 124.631 178.469 125.921C178.159 127.165 176.835 127.996 175.552 127.743C174.986 127.632 174.459 127.41 174.029 127.014C173.837 126.832 173.638 126.729 173.582 127.117C173.527 127.45 173.351 127.711 173 127.656C172.618 127.6 172.658 127.228 172.642 126.935C172.626 126.713 172.642 126.492 172.642 126.143H172.626Z" fill="#262A68"/>
<path d="M101.935 126.214C102.062 125.834 101.687 125.24 102.301 125.074C102.859 124.916 103.099 125.407 103.362 125.811C103.896 126.642 104.988 126.943 105.857 126.523C106.319 126.302 106.598 125.937 106.574 125.415C106.559 124.908 106.168 124.686 105.753 124.575C105.108 124.401 104.438 124.314 103.8 124.139C102.365 123.751 101.727 122.793 102.086 121.605C102.461 120.354 103.824 119.681 105.131 120.116C105.339 120.188 105.554 120.275 105.737 120.394C106.12 120.655 106.455 120.948 106.71 120.251C106.774 120.069 107.021 120.021 107.236 120.077C107.467 120.14 107.547 120.314 107.555 120.52C107.571 120.964 107.571 121.407 107.563 121.851C107.563 122.072 107.539 122.31 107.276 122.397C107.045 122.476 106.822 122.389 106.662 122.231C106.487 122.057 106.343 121.851 106.192 121.661C105.578 120.932 104.47 120.71 103.696 121.162C103.354 121.36 103.114 121.637 103.154 122.057C103.202 122.516 103.497 122.746 103.936 122.825C104.565 122.944 105.203 123.062 105.833 123.189C106.742 123.379 107.595 123.712 107.81 124.733C108.017 125.7 107.85 126.634 106.981 127.252C106.08 127.893 105.1 127.957 104.103 127.45C103.888 127.339 103.681 127.189 103.489 127.038C103.194 126.8 102.979 126.713 102.907 127.22C102.875 127.458 102.78 127.735 102.453 127.695C102.15 127.664 102.062 127.41 102.022 127.165C101.974 126.848 101.974 126.531 101.958 126.199L101.935 126.214Z" fill="#262A68"/>
<path d="M120.686 120.021C122.838 120.021 124.433 122.128 124.058 124.48C123.731 126.531 122.264 127.862 120.423 127.806C119.968 127.79 119.546 127.664 119.139 127.474C117.632 126.761 116.819 124.749 117.258 122.817C117.648 121.075 118.932 120.029 120.694 120.029L120.686 120.021ZM122.695 123.894C122.727 123.34 122.631 122.817 122.4 122.31C122.033 121.51 121.419 121.106 120.526 121.106C119.625 121.106 119.107 121.613 118.804 122.389C118.414 123.395 118.429 124.417 118.756 125.43C119.027 126.262 119.697 126.698 120.558 126.705C121.427 126.705 122.089 126.286 122.416 125.486C122.623 124.979 122.695 124.44 122.687 123.894H122.695Z" fill="#262A68"/>
<path d="M70.0932 121.106C70.6194 120.346 71.305 119.982 72.1979 120.013C72.6922 120.029 72.8437 120.275 72.8278 120.718C72.8118 121.17 72.5567 121.193 72.174 121.193C70.731 121.178 69.9418 121.962 69.8541 123.506C69.8062 124.337 69.8541 125.177 69.8381 126.016C69.8381 126.397 69.9497 126.626 70.3882 126.618C70.731 126.61 71.0659 126.698 71.0659 127.125C71.0659 127.608 70.6752 127.632 70.3165 127.632C69.5989 127.632 68.8814 127.632 68.1559 127.608C67.853 127.6 67.5182 127.529 67.4703 127.165C67.4305 126.816 67.7494 126.721 68.0124 126.682C68.4509 126.61 68.5785 126.357 68.5705 125.961C68.5625 124.559 68.5466 123.15 68.5625 121.748C68.5625 121.32 68.4111 121.122 67.9726 121.075C67.7015 121.051 67.4065 120.94 67.4225 120.592C67.4384 120.275 67.7095 120.148 67.9806 120.077C68.443 119.966 68.9213 119.982 69.3837 120.037C69.9816 120.101 69.7185 120.734 70.0773 121.098L70.0932 121.106Z" fill="#262A68"/>
<path d="M169.022 121.122C169.588 120.33 170.298 119.958 171.214 120.021C171.677 120.053 171.788 120.322 171.772 120.718C171.757 121.106 171.557 121.193 171.19 121.201C169.54 121.241 168.878 121.898 168.807 123.577C168.775 124.337 168.807 125.106 168.791 125.866C168.775 126.357 168.894 126.69 169.476 126.674C169.787 126.674 170.019 126.8 170.011 127.149C170.011 127.497 169.771 127.624 169.468 127.624C168.671 127.624 167.882 127.632 167.085 127.608C166.782 127.6 166.447 127.521 166.423 127.149C166.407 126.808 166.71 126.713 166.989 126.682C167.443 126.618 167.523 126.325 167.523 125.945C167.523 124.567 167.515 123.181 167.523 121.803C167.523 121.399 167.412 121.146 166.965 121.098C166.694 121.067 166.391 120.972 166.391 120.631C166.391 120.259 166.71 120.132 167.005 120.093C167.443 120.037 167.898 120.021 168.336 120.053C168.934 120.093 168.719 120.718 169.03 121.122H169.022Z" fill="#262A68"/>
<path d="M115.153 127.798C113.806 127.798 113.447 127.537 113.359 126.199C113.263 124.773 113.295 123.34 113.295 121.906C113.295 121.423 113.224 121.083 112.626 121.09C112.323 121.09 112.107 120.916 112.107 120.584C112.107 120.283 112.307 120.108 112.57 120.1C113.287 120.1 113.335 119.649 113.319 119.103C113.319 118.802 113.216 118.437 113.622 118.271C114.148 118.065 114.515 118.319 114.547 118.913C114.603 119.95 114.603 119.95 115.639 120.021C115.974 120.045 116.301 120.061 116.317 120.512C116.333 120.972 116.062 121.09 115.663 121.122C114.555 121.209 114.555 121.217 114.555 122.294C114.555 123.45 114.579 124.615 114.547 125.771C114.531 126.428 114.818 126.729 115.44 126.793C115.815 126.832 116.333 126.721 116.301 127.331C116.269 127.941 115.735 127.735 115.376 127.782C115.304 127.79 115.225 127.782 115.153 127.782V127.798Z" fill="#262A68"/>
<path d="M24.236 122.001C24.236 123.26 24.236 124.52 24.236 125.771C24.236 126.175 24.2998 126.492 24.7702 126.603C25.0572 126.666 25.2565 126.88 25.2007 127.196C25.1449 127.513 24.8897 127.632 24.5948 127.632C23.9012 127.632 23.2076 127.632 22.514 127.632C22.2031 127.632 21.9798 127.513 21.9639 127.165C21.9559 126.856 22.0914 126.61 22.4103 126.579C22.9206 126.531 22.9844 126.23 22.9764 125.818C22.9684 123.601 22.9604 121.384 22.9764 119.158C22.9764 118.723 22.8807 118.461 22.3944 118.406C22.0436 118.366 21.8921 118.089 21.932 117.756C21.9719 117.4 22.2589 117.384 22.5459 117.36C24.1882 117.234 24.236 117.273 24.236 118.889C24.236 119.926 24.236 120.964 24.236 121.993V122.001Z" fill="#262A68"/>
<path d="M75.9127 123.395C75.9127 124.258 75.9127 125.122 75.9127 125.977C75.9127 126.365 76.0084 126.65 76.4628 126.698C76.7259 126.721 76.9571 126.848 76.9411 127.157C76.9252 127.466 76.6701 127.569 76.4229 127.592C75.5858 127.672 74.7408 127.687 73.9037 127.592C73.6804 127.569 73.4572 127.45 73.4413 127.181C73.4253 126.911 73.6406 126.761 73.8558 126.737C74.6451 126.658 74.6929 126.143 74.677 125.525C74.6371 124.25 74.6132 122.967 74.6212 121.692C74.6212 121.312 74.4856 121.17 74.1349 121.106C73.8558 121.059 73.4652 121.027 73.4811 120.639C73.4971 120.219 73.8718 120.116 74.2305 120.053C74.3023 120.037 74.382 120.045 74.4538 120.037C75.8888 119.95 75.9127 119.974 75.9207 121.407C75.9207 122.073 75.9207 122.738 75.9207 123.403L75.9127 123.395Z" fill="#262A68"/>
</g>
<defs>
<clipPath id="clip0_164_330">
<rect width="180" height="130" fill="white"/>
</clipPath>
</defs>
</svg>
