<svg width="162" height="63" viewBox="0 0 162 63" fill="none" xmlns="http://www.w3.org/2000/svg">
<g clip-path="url(#clip0_71_26)">
<path d="M63.9224 1.40019C62.8983 1.62421 61.8742 1.79223 60.8821 2.07626C58.6259 2.71632 57.5898 3.97645 57.4897 6.31668C57.3697 9.18496 57.3617 12.0612 57.2817 14.9335C57.2697 15.3536 57.4577 15.3976 57.7978 15.3976C60.31 15.3896 62.8183 15.3936 65.3305 15.3936C69.5349 15.3936 73.7434 15.3936 77.9478 15.3936C78.1518 15.3936 78.3558 15.3936 78.6118 15.3936C78.6278 15.1776 78.6478 15.0095 78.6478 14.8415C78.6398 12.5573 78.6638 10.2731 78.6038 7.98884C78.5758 6.98874 78.4358 5.98464 78.2478 5.00455C78.0078 3.77643 77.2477 2.86034 76.0756 2.4603C74.8435 2.04025 73.5513 1.80423 72.2872 1.4882C72.2112 1.4682 72.1352 1.4642 72.0352 1.4482V0.708123H89.989V1.40819C89.0929 1.59221 88.2048 1.76023 87.3247 1.96025C86.9367 2.04826 86.5606 2.18827 86.1886 2.32828C84.6004 2.92034 83.7763 4.12046 83.5963 5.75662C83.4683 6.94474 83.3763 8.14486 83.3723 9.33698C83.3523 15.6976 83.3483 22.0542 83.3723 28.4149C83.3763 29.719 83.4883 31.0311 83.6603 32.3232C83.8804 33.9994 84.9165 35.0515 86.5046 35.5316C87.4487 35.8196 88.4208 36.0116 89.3889 36.2036C90.025 36.3316 90.033 36.2956 89.981 37.0197H72.0392V36.3196C72.7233 36.1916 73.4313 36.0996 74.1194 35.9196C74.8555 35.7236 75.5995 35.5076 76.2916 35.1955C77.6677 34.5755 78.2638 33.3754 78.4238 31.9512C78.5518 30.7951 78.6318 29.627 78.6438 28.4669C78.6718 25.3506 78.6558 22.2342 78.6518 19.1219C78.6518 19.0139 78.6358 18.9019 78.6278 18.7539H57.3297C57.3177 18.9179 57.3017 19.0579 57.3017 19.198C57.3057 22.3783 57.2857 25.5586 57.3337 28.7349C57.3537 29.959 57.4697 31.1871 57.6498 32.3993C57.9338 34.3114 59.2659 35.2475 61.0061 35.7116C61.7902 35.9196 62.5943 36.0676 63.3943 36.2076C64.0464 36.3196 64.0704 36.3276 63.9184 37.0277H46.0606C45.9326 36.2956 45.9366 36.3316 46.5767 36.2036C47.5448 36.0116 48.5169 35.8156 49.465 35.5356C51.3211 34.9835 52.2532 33.6474 52.4252 31.7672C52.5293 30.6071 52.6213 29.443 52.6213 28.2788C52.6373 21.7742 52.6413 15.2736 52.6053 8.76892C52.5973 7.5328 52.4413 6.28467 52.2332 5.06455C52.0132 3.77643 51.2131 2.83633 49.977 2.42429C48.7729 2.02025 47.5128 1.78823 46.2806 1.4842C46.2046 1.4642 46.1286 1.4602 46.0286 1.4442V0.672119H46.6167C52.1972 0.672119 57.7778 0.672119 63.3583 0.672119C64.0464 0.672119 64.0784 0.712123 63.9304 1.39219L63.9224 1.40019Z" fill="white"/>
<path d="M143.242 37.6597C138.318 37.6477 134.465 36.7836 130.997 34.5714C126.748 31.8671 124.224 27.9667 123.26 23.0623C122.496 19.1619 122.7 15.2975 124.144 11.5691C125.976 6.82865 129.309 3.48432 134.025 1.65214C139.894 -0.624087 145.83 -0.560081 151.623 1.90016C156.943 4.16039 160.072 8.3608 161.388 13.9174C162.368 18.0498 162.208 22.1702 160.672 26.1586C158.564 31.6351 154.523 35.0514 148.967 36.7516C146.83 37.4037 144.63 37.6797 143.242 37.6637V37.6597ZM129.725 16.9056C129.725 20.186 130.121 22.6662 130.917 25.0785C131.917 28.1108 133.409 30.851 135.905 32.9392C139.45 35.9035 144.574 36.3516 148.443 34.0273C150.839 32.5872 152.395 30.431 153.455 27.9027C155.179 23.7903 155.503 19.5419 154.555 15.1895C153.819 11.7971 152.475 8.68883 150.111 6.09658C148.051 3.83235 145.53 2.40021 142.426 2.2762C138.386 2.11218 135.141 3.69634 132.817 7.01667C130.585 10.201 129.777 13.8213 129.721 16.9136L129.725 16.9056Z" fill="white"/>
<path d="M19.5301 37.6557C15.1976 37.6357 11.1372 36.6596 7.54089 34.1553C3.6525 31.4471 1.33227 27.6907 0.436185 23.0742C-0.339892 19.0578 -0.12387 15.0894 1.43628 11.2691C3.48449 6.26457 7.17285 2.95224 12.2614 1.25208C17.3659 -0.452093 22.5224 -0.376085 27.5909 1.40809C32.7714 3.22827 36.2437 6.83663 38.0119 12.0251C39.544 16.5336 39.6001 21.102 38.0399 25.6025C35.9877 31.5151 31.7313 35.1314 25.7827 36.8476C23.7465 37.4356 21.6543 37.6797 19.5301 37.6517V37.6557ZM6.88482 18.0817C6.93683 18.7298 7.00083 19.7819 7.12085 20.826C7.20085 21.5221 7.33687 22.2141 7.49688 22.8942C8.24896 26.1585 9.48908 29.2028 11.7973 31.6951C15.0176 35.1674 18.97 36.3035 23.5145 34.9634C26.8308 33.9833 28.935 31.5631 30.3471 28.5268C32.4634 23.9823 32.7674 19.2539 31.5553 14.4174C30.7112 11.045 29.255 7.98874 26.7348 5.5245C24.1465 2.99225 21.0462 1.86414 17.4259 2.37219C14.1615 2.82823 11.6573 4.5204 9.84511 7.23667C7.73691 10.393 6.94483 13.9333 6.88482 18.0857V18.0817Z" fill="white"/>
<path d="M98.1295 37.0317V36.3276C98.8136 36.1996 99.4856 36.0756 100.158 35.9436C100.422 35.8916 100.686 35.8236 100.946 35.7516C103.434 35.0755 104.47 33.8274 104.618 31.2631C104.694 29.971 104.742 28.6789 104.746 27.3868C104.758 21.4102 104.77 15.4336 104.738 9.45698C104.73 8.07285 104.606 6.68471 104.422 5.31257C104.226 3.86843 103.362 2.83633 101.986 2.37228C100.754 1.95624 99.4696 1.68822 98.1455 1.34018V0.724121H116.079V1.42019C115.199 1.60021 114.323 1.76822 113.455 1.96024C113.131 2.03225 112.811 2.14826 112.495 2.25627C110.799 2.82833 109.883 4.04045 109.695 5.78462C109.567 6.98874 109.479 8.20486 109.475 9.41298C109.455 15.7256 109.447 22.0342 109.475 28.3468C109.483 29.699 109.603 31.0551 109.783 32.3953C109.991 33.9434 110.931 34.9835 112.407 35.4556C113.435 35.7836 114.507 35.9756 115.563 36.2236C115.731 36.2636 115.903 36.2876 116.083 36.3236V37.0317H98.1255H98.1295Z" fill="white"/>
<path d="M92.813 54.4774C92.813 55.6415 92.761 56.8056 92.829 57.9658C92.885 58.8858 93.3331 59.3059 94.2532 59.5259C94.6692 59.6259 95.0972 59.6819 95.5413 59.7619V60.146C95.4133 60.158 95.2893 60.182 95.1652 60.182C92.941 60.182 90.7208 60.182 88.4966 60.182C88.4326 60.182 88.3566 60.202 88.3086 60.174C88.2166 60.118 88.0805 60.042 88.0725 59.962C88.0645 59.8819 88.1766 59.7339 88.2606 59.7139C88.5846 59.6259 88.9166 59.5819 89.2447 59.5099C89.8807 59.3699 90.2448 58.9699 90.3208 58.3258C90.3688 57.9138 90.4168 57.5017 90.4168 57.0857C90.4248 54.8974 90.4168 52.7092 90.4168 50.521C90.4168 50.377 90.4128 50.233 90.3888 50.093C90.2368 49.0889 89.9847 48.8168 88.9926 48.6128C88.7886 48.5728 88.5686 48.5928 88.3806 48.5248C88.2526 48.4768 88.1646 48.3208 88.0605 48.2128C88.1806 48.1488 88.3046 48.0328 88.4246 48.0328C90.2008 48.0208 91.9729 48.0048 93.7491 48.0328C94.6572 48.0488 95.5733 48.0888 96.4654 48.2328C97.5455 48.4088 98.4456 48.9129 98.7216 50.089C99.0176 51.3531 98.6096 52.3892 97.5895 53.1773C97.2655 53.4253 96.8934 53.6173 96.4894 53.8653C97.5375 55.5375 98.1815 57.4497 99.5937 58.8938C101.302 60.638 103.382 61.4981 105.842 61.5941C105.258 61.6941 104.674 61.8501 104.086 61.8821C100.766 62.0462 98.1575 60.742 96.3094 57.9738C95.8653 57.3097 95.4253 56.6336 95.1012 55.9136C94.6532 54.9175 93.9691 54.4014 92.817 54.4894L92.813 54.4774ZM92.821 48.6728V53.7973C93.6731 53.7613 94.4332 53.5613 95.1052 53.0893C96.5254 52.0852 96.5094 49.965 95.0692 49.1529C94.3892 48.7688 93.6411 48.6448 92.821 48.6768V48.6728Z" fill="white"/>
<path d="M21.5822 60.182C21.4702 59.826 21.5902 59.73 21.8662 59.666C23.4304 59.3019 23.7384 58.9059 23.7424 57.2977C23.7424 55.3495 23.7424 53.4013 23.7424 51.4531C23.7424 51.2131 23.7424 50.9731 23.7144 50.7371C23.6024 49.557 22.9503 48.8529 21.8062 48.5809C21.4302 48.4929 21.4342 48.4808 21.4702 48.0288C22.7743 48.0288 24.0824 48.0208 25.3906 48.0408C25.5146 48.0408 25.6506 48.1968 25.7506 48.3088C28.2908 51.1331 30.8311 53.9614 33.3713 56.7897C33.3914 56.8137 33.4234 56.8217 33.5114 56.8737C33.5274 56.7177 33.5554 56.5896 33.5514 56.4616C33.5194 54.6575 33.5074 52.8533 33.4434 51.0531C33.3794 49.2449 32.9673 48.8129 31.1591 48.5729C30.8471 48.5289 30.6671 48.4448 30.7831 48.0648H36.1396C36.2476 48.3528 36.1876 48.5249 35.8356 48.5689C35.1075 48.6649 34.7315 49.1449 34.6595 49.825C34.5715 50.6651 34.5315 51.5131 34.5275 52.3572C34.5115 55.3935 34.5235 58.4258 34.5235 61.4621C34.5235 61.6341 34.5235 61.8062 34.5235 62.1062C31.2391 58.3818 28.0428 54.7535 24.8425 51.1211C24.7905 51.1411 24.7425 51.1571 24.6905 51.1771C24.6905 51.9492 24.6705 52.7213 24.6945 53.4893C24.7345 54.7655 24.7945 56.0416 24.8545 57.3137C24.9225 58.8219 25.2305 59.1979 26.6827 59.5699C26.8507 59.6139 27.0347 59.6259 27.1907 59.706C27.2907 59.758 27.3748 59.89 27.4028 59.998C27.4108 60.042 27.2427 60.182 27.1507 60.186C25.2986 60.198 23.4464 60.194 21.5862 60.194L21.5822 60.182Z" fill="white"/>
<path d="M71.4831 60.1819C71.3471 59.8699 71.4031 59.7139 71.7111 59.6659C72.0112 59.6219 72.3072 59.5619 72.6032 59.4939C73.1953 59.3579 73.5513 58.9818 73.6313 58.3778C73.6833 57.9817 73.7313 57.5857 73.7313 57.1896C73.7393 55.1294 73.7353 53.0692 73.7353 51.009C73.7353 50.929 73.7353 50.849 73.7353 50.769C73.6993 49.1729 73.4033 48.8168 71.8352 48.5688C71.4991 48.5168 71.3191 48.4288 71.4631 48.0367H81.9762C81.8681 49.0648 81.7601 50.0689 81.6521 51.109C81.4841 51.117 81.3361 51.129 81.2001 51.137C81.1641 51.085 81.1361 51.061 81.1321 51.033C80.86 49.4569 80.424 48.9728 78.8678 48.8048C77.9718 48.7048 77.0597 48.7888 76.1236 48.7888V53.3413C77.1917 53.3413 78.2598 53.4933 79.2959 53.1452C79.8719 52.9532 80.16 52.4572 80.344 51.9131C80.436 51.6411 80.56 51.4891 80.832 51.6371V56.0535C80.484 56.1935 80.344 56.0975 80.252 55.7855C79.948 54.7814 79.4919 54.4334 78.4478 54.4094C77.6837 54.3934 76.9197 54.4094 76.1956 54.4094C76.1956 55.7295 76.1596 57.0176 76.2116 58.2978C76.2356 58.8578 76.6596 59.2098 77.2117 59.3259C79.4039 59.7859 81.4161 59.2779 82.1962 56.7056C82.2442 56.5536 82.2642 56.3816 82.3562 56.2616C82.4242 56.1735 82.5882 56.1095 82.7002 56.1175C82.7762 56.1255 82.9082 56.2936 82.8962 56.3696C82.7162 57.5657 82.5322 58.7578 82.3042 59.9419C82.2842 60.0459 81.9882 60.1659 81.8201 60.1659C80.144 60.1819 78.4638 60.1779 76.7836 60.1779C75.1995 60.1779 73.6193 60.1779 72.0352 60.1779C71.8472 60.1779 71.6591 60.1779 71.4871 60.1779L71.4831 60.1819Z" fill="white"/>
<path d="M2.46831 48.0367H9.43299C9.513 48.4808 9.517 48.4808 9.13697 48.5408C9.04096 48.5568 8.94495 48.5568 8.84894 48.5688C7.69682 48.7528 7.18077 49.1928 7.14877 50.3369C7.09276 52.3451 7.10876 54.3613 7.18877 56.3695C7.26078 58.2337 8.59691 59.0658 10.1291 59.3058C10.7651 59.4058 11.4412 59.3938 12.0773 59.2898C13.3294 59.0858 14.1735 58.1497 14.3135 56.7616C14.4255 55.6695 14.4095 54.5654 14.3935 53.4652C14.3815 52.3491 14.3175 51.233 14.2455 50.1209C14.1975 49.3488 13.7374 48.9128 12.9973 48.7528C12.7013 48.6888 12.4053 48.6088 12.1053 48.5768C11.7692 48.5408 11.6452 48.4008 11.7652 48.0487C13.8294 48.0487 15.9016 48.0487 17.9738 48.0487C18.0325 48.3234 17.9445 48.4688 17.7098 48.4848C17.5338 48.4968 17.3578 48.4968 17.1858 48.5328C16.0136 48.7768 15.6296 49.1648 15.5416 50.3609C15.4176 51.9811 15.3576 53.6093 15.2576 55.2334C15.2216 55.8055 15.1896 56.3815 15.1056 56.9456C14.8455 58.7178 13.7374 59.7459 12.0853 60.2179C10.6091 60.638 9.11696 60.61 7.64882 60.1619C5.65262 59.5499 4.81654 58.4697 4.76853 56.3855C4.72853 54.5334 4.75253 52.6812 4.73653 50.829C4.72453 49.1608 4.4405 48.8248 2.80434 48.5688C2.47231 48.5168 2.33629 48.4088 2.46031 48.0327L2.46831 48.0367Z" fill="white"/>
<path d="M53.5213 48.0448H59.7539C59.874 48.3848 59.7739 48.5408 59.4339 48.5929C59.1699 48.6329 58.9099 48.7249 58.6538 48.8209C58.1098 49.0289 57.9578 49.3089 58.1138 49.865C58.2338 50.293 58.3818 50.7171 58.5538 51.1291C59.3899 53.1293 60.238 55.1255 61.0821 57.1217C61.1301 57.2377 61.1901 57.3497 61.2541 57.4817C61.3021 57.4377 61.3501 57.4137 61.3621 57.3817C62.1982 55.1935 63.0943 53.0253 63.8423 50.8091C64.3704 49.2449 64.0184 48.8049 62.3902 48.5689C62.0702 48.5208 61.8541 48.4568 62.0102 48.0488H67.5027L67.6147 48.1488C67.5027 48.2848 67.4107 48.5088 67.2787 48.5368C66.4026 48.7289 65.8305 49.2929 65.4665 50.049C64.8504 51.3251 64.2744 52.6253 63.7303 53.9334C62.6702 56.4816 61.6461 59.0419 60.606 61.5941C60.546 61.7382 60.478 61.8782 60.378 62.0902C60.274 61.8622 60.19 61.6981 60.122 61.5301C58.7138 58.0578 57.3097 54.5854 55.9016 51.1131C55.7576 50.7571 55.5855 50.417 55.4415 50.061C55.1335 49.3249 54.6494 48.7929 53.8374 48.6289C53.5213 48.5649 53.4093 48.3888 53.5213 48.0448Z" fill="white"/>
<path d="M105.462 56.1376C105.826 55.8976 105.994 55.9696 106.122 56.3176C106.491 57.3217 107.035 58.2218 107.871 58.9058C108.635 59.5259 109.499 59.8659 110.495 59.6539C112.007 59.3299 112.607 57.7177 111.643 56.5056C111.315 56.0936 110.855 55.7575 110.403 55.4775C109.659 55.0175 108.855 54.6534 108.095 54.2094C107.227 53.6973 106.462 53.0773 106.246 52.0092C105.934 50.465 106.767 48.9409 108.363 48.2248C110.043 47.4727 111.715 47.5887 113.367 48.3488C113.591 48.4528 113.683 48.5808 113.663 48.8649C113.587 49.7689 113.567 50.677 113.523 51.6091C113.351 51.6171 113.211 51.6251 113.071 51.6371C113.039 51.5851 113.003 51.5531 112.991 51.5091C112.819 50.9811 112.695 50.429 112.471 49.921C112.087 49.0529 111.431 48.5368 110.423 48.5368C109.703 48.5368 109.139 48.7969 108.787 49.4249C108.423 50.069 108.399 50.761 108.815 51.3771C109.067 51.7491 109.411 52.0972 109.787 52.3452C110.463 52.7932 111.203 53.1453 111.903 53.5613C112.355 53.8293 112.815 54.1014 113.219 54.4334C115.019 55.9136 114.847 58.5698 112.819 59.7139C110.647 60.9421 108.439 60.738 106.29 59.5739C106.182 59.5139 106.07 59.3699 106.046 59.2499C105.842 58.2218 105.658 57.1857 105.466 56.1496L105.462 56.1376Z" fill="white"/>
<path d="M156.76 59.7379C156.864 60.03 156.816 60.186 156.488 60.182C154.183 60.178 151.883 60.182 149.579 60.17C149.479 60.17 149.379 60.038 149.279 59.9659C149.363 59.8779 149.427 59.7339 149.527 59.7059C149.819 59.6259 150.123 59.5939 150.419 59.5339C151.411 59.3299 151.743 58.9899 151.819 58.0058C151.879 57.2417 151.891 56.4736 151.899 55.7095C151.899 55.5135 151.827 55.3015 151.739 55.1215C150.999 53.6013 150.235 52.0932 149.507 50.565C149.019 49.5369 148.299 48.8209 147.159 48.5648C146.835 48.4928 146.839 48.4728 146.883 48.0408H153.003C153.103 48.3568 153.047 48.5528 152.687 48.5768C152.563 48.5848 152.439 48.6328 152.315 48.6688C151.747 48.8369 151.559 49.1129 151.759 49.6689C152.011 50.373 152.331 51.0531 152.639 51.7331C152.995 52.5172 153.375 53.2853 153.743 54.0614C153.799 54.0414 153.843 54.0374 153.851 54.0174C154.451 52.7492 155.091 51.5011 155.627 50.209C156.011 49.2849 155.771 48.9209 154.811 48.6128C154.539 48.5248 154.417 48.3341 154.443 48.0408H159.524C159.628 48.3328 159.596 48.5088 159.236 48.5768C157.932 48.8249 157.052 49.5929 156.464 50.777C155.803 52.1052 155.071 53.3973 154.375 54.7054C154.323 54.8054 154.239 54.9054 154.235 55.0095C154.207 56.2176 154.051 57.4417 154.431 58.6218C154.651 59.2979 155.295 59.4699 155.915 59.6059C156.179 59.6659 156.452 59.6899 156.756 59.7339L156.76 59.7379Z" fill="white"/>
<path d="M136.349 48.6608C135.505 48.7768 134.705 48.8248 133.941 49.0088C132.977 49.2408 132.441 49.9849 132.085 50.865C132.025 51.013 132.005 51.181 131.917 51.309C131.853 51.401 131.693 51.5051 131.609 51.4811C131.521 51.4571 131.405 51.281 131.413 51.185C131.525 50.1409 131.657 49.1008 131.789 48.0327H143.342C143.478 49.1688 143.614 50.2849 143.75 51.397C143.478 51.5451 143.314 51.6011 143.182 51.245C142.498 49.4089 141.626 48.8008 139.662 48.7528C139.378 48.7448 139.09 48.7528 138.754 48.7528C138.746 48.9448 138.726 49.1128 138.73 49.2808C138.734 51.9651 138.742 54.6454 138.75 57.3296C138.75 57.4096 138.75 57.4897 138.754 57.5697C138.798 58.9818 139.178 59.4058 140.57 59.6059C140.838 59.6459 141.106 59.6859 141.402 59.7299V60.1579H133.745C133.657 59.8859 133.665 59.7179 134.017 59.6779C134.429 59.6299 134.833 59.5378 135.237 59.4538C135.865 59.3178 136.181 58.8938 136.277 58.2857C136.329 57.9377 136.373 57.5897 136.373 57.2376C136.381 54.5534 136.377 51.8691 136.373 49.1888C136.373 49.0648 136.357 48.9408 136.341 48.6608H136.349Z" fill="white"/>
<path d="M119.544 48.0408H126.525C126.633 48.3568 126.573 48.5128 126.217 48.5688C124.533 48.8409 124.288 49.0729 124.26 50.797C124.22 53.1573 124.244 55.5215 124.281 57.8857C124.297 59.0619 124.697 59.4139 126.005 59.6299C126.261 59.6739 126.689 59.5859 126.545 60.146H119.552C119.472 59.8899 119.48 59.7139 119.828 59.6779C120.096 59.6539 120.36 59.5859 120.624 59.5219C121.384 59.3459 121.708 58.9939 121.796 58.2098C121.844 57.7817 121.888 57.3497 121.884 56.9216C121.868 54.6894 121.86 52.4532 121.804 50.221C121.776 49.1929 121.408 48.8369 120.408 48.6528C120.236 48.6208 120.064 48.5688 119.888 48.5648C119.536 48.5528 119.44 48.3808 119.544 48.0408Z" fill="white"/>
<path d="M42.016 48.0408H49.0007C49.1207 48.3608 49.0487 48.5088 48.6966 48.5648C47.0085 48.8369 46.7564 49.1049 46.7364 50.789C46.7124 53.0733 46.7204 55.3535 46.7364 57.6377C46.7484 59.0219 47.1045 59.3979 48.4726 59.6299C48.7286 59.6739 49.1887 59.5899 49.0047 60.158H42.024C41.932 59.8779 41.956 59.7139 42.28 59.6819C42.564 59.6539 42.844 59.5859 43.1241 59.5179C43.8601 59.3419 44.1922 58.9899 44.2682 58.2378C44.3282 57.6177 44.3682 56.9977 44.3602 56.3776C44.3482 54.3054 44.3362 52.2292 44.2682 50.157C44.2362 49.1729 43.8761 48.8449 42.9121 48.6608C42.724 48.6248 42.536 48.5728 42.348 48.5648C41.996 48.5488 41.908 48.3768 42.016 48.0448V48.0408Z" fill="white"/>
</g>
<defs>
<clipPath id="clip0_71_26">
<rect width="162" height="62.0941" fill="white"/>
</clipPath>
</defs>
</svg>
