<svg width="14" height="14" viewBox="0 0 14 14" fill="none" xmlns="http://www.w3.org/2000/svg">
<path fill-rule="evenodd" clip-rule="evenodd" d="M14 7C14 10.866 10.866 14 7 14C3.134 14 0 10.866 0 7C0 3.134 3.134 0 7 0C10.866 0 14 3.134 14 7ZM7.875 3.5C7.875 3.98324 7.48326 4.375 7 4.375C6.51676 4.375 6.125 3.98324 6.125 3.5C6.125 3.01676 6.51676 2.625 7 2.625C7.48326 2.625 7.875 3.01676 7.875 3.5ZM6.125 6.125C5.64176 6.125 5.25 6.51676 5.25 7C5.25 7.48326 5.64176 7.875 6.125 7.875V10.5C6.125 10.9833 6.51676 11.375 7 11.375H7.875C8.35826 11.375 8.75 10.9833 8.75 10.5C8.75 10.0167 8.35826 9.625 7.875 9.625V7C7.875 6.51676 7.48326 6.125 7 6.125H6.125Z" fill="white"/>
</svg>
